%TF.GenerationSoftware,KiCad,Pcbnew,(6.0.2-0)*%
%TF.CreationDate,2022-02-21T07:07:23+00:00*%
%TF.ProjectId,Regulator,52656775-6c61-4746-9f72-2e6b69636164,1*%
%TF.SameCoordinates,Original*%
%TF.FileFunction,Copper,L1,Top*%
%TF.FilePolarity,Positive*%
%FSLAX46Y46*%
G04 Gerber Fmt 4.6, Leading zero omitted, Abs format (unit mm)*
G04 Created by KiCad (PCBNEW (6.0.2-0)) date 2022-02-21 07:07:23*
%MOMM*%
%LPD*%
G01*
G04 APERTURE LIST*
G04 Aperture macros list*
%AMRoundRect*
0 Rectangle with rounded corners*
0 $1 Rounding radius*
0 $2 $3 $4 $5 $6 $7 $8 $9 X,Y pos of 4 corners*
0 Add a 4 corners polygon primitive as box body*
4,1,4,$2,$3,$4,$5,$6,$7,$8,$9,$2,$3,0*
0 Add four circle primitives for the rounded corners*
1,1,$1+$1,$2,$3*
1,1,$1+$1,$4,$5*
1,1,$1+$1,$6,$7*
1,1,$1+$1,$8,$9*
0 Add four rect primitives between the rounded corners*
20,1,$1+$1,$2,$3,$4,$5,0*
20,1,$1+$1,$4,$5,$6,$7,0*
20,1,$1+$1,$6,$7,$8,$9,0*
20,1,$1+$1,$8,$9,$2,$3,0*%
%AMFreePoly0*
4,1,24,1.812500,0.558253,1.858253,0.512500,1.875000,0.450000,1.860584,0.322050,1.818057,0.200517,1.749553,0.091493,1.658507,0.000447,1.549483,-0.068057,1.427950,-0.110584,1.300000,-0.125000,-1.300000,-0.125000,-1.300000,0.125000,1.300000,0.125000,1.309502,0.122454,1.401682,0.137054,1.493411,0.183792,1.566208,0.256589,1.612946,0.348318,1.627546,0.440498,1.625000,0.450000,
1.641747,0.512500,1.687500,0.558253,1.750000,0.575000,1.812500,0.558253,1.812500,0.558253,$1*%
%AMFreePoly1*
4,1,43,1.102950,0.110584,1.224483,0.068057,1.333507,-0.000447,1.424553,-0.091493,1.493057,-0.200517,1.535584,-0.322050,1.550000,-0.450000,1.533253,-0.512500,1.487500,-0.558253,1.425000,-0.575000,1.362500,-0.558253,1.316747,-0.512500,1.300000,-0.450000,1.302546,-0.440498,1.287946,-0.348318,1.241208,-0.256589,1.168411,-0.183792,1.076682,-0.137054,0.984502,-0.122454,0.975000,-0.125000,
-0.975000,-0.125000,-0.984502,-0.122454,-1.076682,-0.137054,-1.168411,-0.183792,-1.241208,-0.256589,-1.287946,-0.348318,-1.302546,-0.440498,-1.300000,-0.450000,-1.316747,-0.512500,-1.362500,-0.558253,-1.425000,-0.575000,-1.487500,-0.558253,-1.533253,-0.512500,-1.550000,-0.450000,-1.535584,-0.322050,-1.493057,-0.200517,-1.424553,-0.091493,-1.333507,-0.000447,-1.224483,0.068057,-1.102950,0.110584,
-0.975000,0.125000,0.975000,0.125000,1.102950,0.110584,1.102950,0.110584,$1*%
%AMFreePoly2*
4,1,37,1.095671,1.230970,1.176777,1.176777,1.230970,1.095671,1.250000,1.000000,1.234611,0.804457,1.188821,0.613729,1.113759,0.432512,1.011272,0.265269,0.883885,0.116117,0.734733,-0.011271,0.567490,-0.113758,0.386273,-0.188820,0.195545,-0.234610,0.000002,-0.250000,-0.095669,-0.230970,-0.176775,-0.176777,-0.230968,-0.095671,-0.249998,0.000000,-0.230968,0.095671,-0.176775,0.176777,
-0.095669,0.230970,0.000002,0.250000,0.012204,0.247573,0.147027,0.260852,0.288403,0.303738,0.418695,0.373381,0.532897,0.467104,0.626620,0.581306,0.696263,0.711599,0.739148,0.852974,0.752427,0.987798,0.750000,1.000000,0.769030,1.095671,0.823223,1.176777,0.904329,1.230970,1.000000,1.250000,1.095671,1.230970,1.095671,1.230970,$1*%
%AMFreePoly3*
4,1,72,4.686563,7.086550,4.817878,7.046716,4.938899,6.982029,5.044975,6.894975,5.132029,6.788899,5.196716,6.667878,5.236550,6.536563,5.250000,6.400000,5.250000,1.600000,5.230970,1.504329,5.176777,1.423223,5.112500,1.380275,5.112500,0.250000,6.600000,0.250000,6.695671,0.230970,6.776777,0.176777,6.830970,0.095671,6.850000,0.000000,6.830970,-0.095671,6.776777,-0.176777,
6.695671,-0.230970,6.600000,-0.250000,0.000000,-0.250000,-0.095671,-0.230970,-0.176777,-0.176777,-0.230970,-0.095671,-0.250000,0.000000,-0.230970,0.095671,-0.176777,0.176777,-0.095671,0.230970,0.000000,0.250000,4.612500,0.250000,4.612500,1.600000,4.631530,1.695671,4.685723,1.776777,4.750000,1.819725,4.750000,6.400000,4.751388,6.406978,4.742582,6.462574,4.713820,6.519022,
4.669022,6.563820,4.612574,6.592582,4.556978,6.601388,4.550000,6.600000,1.550000,6.600000,1.543022,6.601388,1.487426,6.592582,1.430978,6.563820,1.386180,6.519022,1.357418,6.462574,1.348612,6.406978,1.350000,6.400000,1.350000,5.900000,1.330970,5.804329,1.276777,5.723223,1.195671,5.669030,1.100000,5.650000,1.004329,5.669030,0.923223,5.723223,0.869030,5.804329,
0.850000,5.900000,0.850000,6.400000,0.863450,6.536563,0.903284,6.667878,0.967971,6.788899,1.055025,6.894975,1.161101,6.982029,1.282122,7.046716,1.413437,7.086550,1.550000,7.100000,4.550000,7.100000,4.686563,7.086550,4.686563,7.086550,$1*%
G04 Aperture macros list end*
%TA.AperFunction,SMDPad,CuDef*%
%ADD10RoundRect,0.225000X0.250000X-0.225000X0.250000X0.225000X-0.250000X0.225000X-0.250000X-0.225000X0*%
%TD*%
%TA.AperFunction,SMDPad,CuDef*%
%ADD11FreePoly0,0.000000*%
%TD*%
%TA.AperFunction,SMDPad,CuDef*%
%ADD12R,0.500000X2.000000*%
%TD*%
%TA.AperFunction,SMDPad,CuDef*%
%ADD13RoundRect,0.249375X-0.463125X-0.625625X0.463125X-0.625625X0.463125X0.625625X-0.463125X0.625625X0*%
%TD*%
%TA.AperFunction,SMDPad,CuDef*%
%ADD14R,0.600000X1.100000*%
%TD*%
%TA.AperFunction,SMDPad,CuDef*%
%ADD15R,2.000000X0.500000*%
%TD*%
%TA.AperFunction,SMDPad,CuDef*%
%ADD16FreePoly1,0.000000*%
%TD*%
%TA.AperFunction,SMDPad,CuDef*%
%ADD17R,1.425000X3.700000*%
%TD*%
%TA.AperFunction,SMDPad,CuDef*%
%ADD18FreePoly2,0.000000*%
%TD*%
%TA.AperFunction,SMDPad,CuDef*%
%ADD19RoundRect,0.250000X-0.475000X0.250000X-0.475000X-0.250000X0.475000X-0.250000X0.475000X0.250000X0*%
%TD*%
%TA.AperFunction,SMDPad,CuDef*%
%ADD20FreePoly3,0.000000*%
%TD*%
%TA.AperFunction,SMDPad,CuDef*%
%ADD21R,0.500000X4.000000*%
%TD*%
%TA.AperFunction,SMDPad,CuDef*%
%ADD22RoundRect,0.200000X0.200000X0.275000X-0.200000X0.275000X-0.200000X-0.275000X0.200000X-0.275000X0*%
%TD*%
%TA.AperFunction,ComponentPad*%
%ADD23C,1.700000*%
%TD*%
%TA.AperFunction,SMDPad,CuDef*%
%ADD24R,1.700000X1.270000*%
%TD*%
%TA.AperFunction,ComponentPad*%
%ADD25O,1.700000X1.700000*%
%TD*%
%TA.AperFunction,ComponentPad*%
%ADD26RoundRect,0.425000X0.425000X-0.425000X0.425000X0.425000X-0.425000X0.425000X-0.425000X-0.425000X0*%
%TD*%
%TA.AperFunction,ViaPad*%
%ADD27C,1.000000*%
%TD*%
%TA.AperFunction,Conductor*%
%ADD28C,0.250000*%
%TD*%
%TA.AperFunction,Conductor*%
%ADD29C,0.500000*%
%TD*%
G04 APERTURE END LIST*
D10*
%TO.P,U1,*%
%TO.N,*%
X158475500Y-61837000D03*
D11*
X159775500Y-61912000D03*
D12*
X161525500Y-64662000D03*
D13*
X161373000Y-65532000D03*
D14*
X161525500Y-63712000D03*
D15*
X162475500Y-63712000D03*
D10*
X158475500Y-63387000D03*
D14*
X161525500Y-61012000D03*
D16*
X160100500Y-62812000D03*
D17*
X162975500Y-62412000D03*
D14*
%TO.P,U1,1,SHDN*%
%TO.N,Net-(J1-Pad1)*%
X159625500Y-63712000D03*
D18*
%TO.P,U1,2,VIN*%
X159515500Y-64912000D03*
D14*
X160575500Y-63712000D03*
D19*
X159725500Y-64962000D03*
%TO.P,U1,3,GND*%
%TO.N,GND*%
X159725500Y-66862000D03*
D14*
X160575500Y-61012000D03*
D13*
X164338000Y-65532000D03*
D19*
X165975500Y-66862000D03*
D20*
X159475500Y-66862000D03*
D21*
%TO.P,U1,4,VOUT*%
%TO.N,Net-(J1-Pad4)*%
X165975500Y-63162000D03*
D17*
X165975500Y-62412000D03*
D19*
X165975500Y-64962000D03*
D14*
%TO.P,U1,5,FB*%
%TO.N,Net-(R1-Pad2)*%
X159625500Y-61012000D03*
%TD*%
D22*
%TO.P,R2,1*%
%TO.N,GND*%
X159798500Y-59679000D03*
%TO.P,R2,2*%
%TO.N,Net-(R1-Pad2)*%
X158148500Y-59679000D03*
%TD*%
D23*
%TO.P,J1,1,Pin_1*%
%TO.N,Net-(J1-Pad1)*%
X158750000Y-69850000D03*
D24*
X158750000Y-70485000D03*
%TO.P,J1,2,Pin_2*%
X161290000Y-70485000D03*
D25*
X161290000Y-69850000D03*
D26*
%TO.P,J1,3,Pin_3*%
%TO.N,GND*%
X163830000Y-69850000D03*
D24*
X163830000Y-70485000D03*
%TO.P,J1,4,Pin_4*%
%TO.N,Net-(J1-Pad4)*%
X166370000Y-70485000D03*
D25*
X166370000Y-69850000D03*
%TD*%
D22*
%TO.P,R1,1*%
%TO.N,Net-(J1-Pad4)*%
X166148500Y-59044000D03*
%TO.P,R1,2*%
%TO.N,Net-(R1-Pad2)*%
X164498500Y-59044000D03*
%TD*%
D27*
%TO.N,GND*%
X162854500Y-65532000D03*
%TD*%
D28*
%TO.N,Net-(J1-Pad1)*%
X158750000Y-70000000D02*
X161290000Y-70000000D01*
X158242000Y-64262000D02*
X158626381Y-64262000D01*
X159438007Y-63712000D02*
X159625500Y-63712000D01*
X157734000Y-68834000D02*
X157734000Y-64770000D01*
X159073003Y-64077003D02*
X159438007Y-63712000D01*
X159073003Y-64077003D02*
G75*
G02*
X158626381Y-64262000I-446626J446632D01*
G01*
X158242000Y-64262000D02*
G75*
G03*
X157734000Y-64770000I1J-508001D01*
G01*
X157734000Y-68834000D02*
G75*
G03*
X158750000Y-69850000I1016002J2D01*
G01*
D29*
X158550980Y-67401750D02*
X158550980Y-65477020D01*
X159512000Y-68072000D02*
X159221230Y-68072000D01*
X159725500Y-64962000D02*
X159066000Y-64962000D01*
X158550980Y-67401750D02*
G75*
G03*
X159221230Y-68072000I670251J1D01*
G01*
X159512000Y-68072000D02*
G75*
G02*
X161290000Y-69850000I0J-1778000D01*
G01*
X158550980Y-65477020D02*
G75*
G02*
X159066000Y-64962000I515020J0D01*
G01*
%TO.N,Net-(J1-Pad4)*%
X166148500Y-59044000D02*
X166148500Y-61994342D01*
X166334040Y-62412000D02*
X165975500Y-62412000D01*
X167150020Y-69069980D02*
X167150020Y-63227980D01*
X165975500Y-62412000D02*
G75*
G03*
X166148500Y-61994342I-417654J417657D01*
G01*
X166334040Y-62412000D02*
G75*
G02*
X167150020Y-63227980I0J-815980D01*
G01*
X167150020Y-69069980D02*
G75*
G02*
X166370000Y-69850000I-780021J1D01*
G01*
D28*
%TO.N,Net-(R1-Pad2)*%
X164498500Y-59044000D02*
X164333980Y-58879480D01*
X159625500Y-61012000D02*
X158782500Y-61012000D01*
X164333980Y-58879480D02*
X158948020Y-58879480D01*
X158148500Y-59679000D02*
X158148500Y-60378000D01*
X158148500Y-60378000D02*
G75*
G03*
X158782500Y-61012000I633999J-1D01*
G01*
X158148500Y-59679000D02*
G75*
G02*
X158948020Y-58879480I799520J0D01*
G01*
D29*
%TO.N,GND*%
X162854500Y-65532000D02*
X164338000Y-65532000D01*
D28*
X159798500Y-59679000D02*
X160575500Y-60456000D01*
X160575500Y-60456000D02*
X160575500Y-61012000D01*
%TD*%
%TA.AperFunction,Conductor*%
%TO.N,GND*%
G36*
X164362624Y-67626079D02*
G01*
X164362624Y-67625729D01*
X164889345Y-67625729D01*
X164957466Y-67645731D01*
X164978363Y-67662556D01*
X165027197Y-67711305D01*
X165033427Y-67715145D01*
X165033428Y-67715146D01*
X165139653Y-67780624D01*
X165177762Y-67804115D01*
X165257505Y-67830564D01*
X165339111Y-67857632D01*
X165339113Y-67857632D01*
X165345639Y-67859797D01*
X165352475Y-67860497D01*
X165352478Y-67860498D01*
X165395531Y-67864909D01*
X165450100Y-67870500D01*
X166500900Y-67870500D01*
X166506513Y-67869918D01*
X166507034Y-67870014D01*
X166507392Y-67869995D01*
X166507396Y-67870080D01*
X166576332Y-67882779D01*
X166628116Y-67931347D01*
X166645520Y-67995244D01*
X166645520Y-68625054D01*
X166625518Y-68693175D01*
X166571862Y-68739668D01*
X166497382Y-68748347D01*
X166497358Y-68748575D01*
X166496342Y-68748468D01*
X166494936Y-68748632D01*
X166493133Y-68748274D01*
X166485946Y-68746844D01*
X166480171Y-68746768D01*
X166480167Y-68746768D01*
X166378793Y-68745441D01*
X166282971Y-68744187D01*
X166277274Y-68745166D01*
X166277273Y-68745166D01*
X166088607Y-68777585D01*
X166082910Y-68778564D01*
X165892463Y-68848824D01*
X165718010Y-68952612D01*
X165713670Y-68956418D01*
X165713666Y-68956421D01*
X165611777Y-69045776D01*
X165565392Y-69086455D01*
X165439720Y-69245869D01*
X165437031Y-69250980D01*
X165437029Y-69250983D01*
X165412838Y-69296963D01*
X165363419Y-69347935D01*
X165294286Y-69364098D01*
X165227390Y-69340319D01*
X165183970Y-69284148D01*
X165179623Y-69270906D01*
X165132536Y-69095175D01*
X165127832Y-69082921D01*
X165044786Y-68919934D01*
X165037636Y-68908923D01*
X164922515Y-68766762D01*
X164913238Y-68757485D01*
X164771077Y-68642364D01*
X164760066Y-68635214D01*
X164597079Y-68552168D01*
X164584825Y-68547464D01*
X164407334Y-68499905D01*
X164396001Y-68497958D01*
X164322754Y-68492193D01*
X164317827Y-68492000D01*
X164102115Y-68492000D01*
X164086876Y-68496475D01*
X164085671Y-68497865D01*
X164084000Y-68505548D01*
X164084000Y-70740000D01*
X164063998Y-70808121D01*
X164010342Y-70854614D01*
X163958000Y-70866000D01*
X163702000Y-70866000D01*
X163633879Y-70845998D01*
X163587386Y-70792342D01*
X163576000Y-70740000D01*
X163576000Y-68510116D01*
X163571525Y-68494877D01*
X163570135Y-68493672D01*
X163562452Y-68492001D01*
X163342175Y-68492001D01*
X163337244Y-68492195D01*
X163263997Y-68497958D01*
X163252668Y-68499905D01*
X163075175Y-68547464D01*
X163062921Y-68552168D01*
X162899934Y-68635214D01*
X162888923Y-68642364D01*
X162746762Y-68757485D01*
X162737485Y-68766762D01*
X162622364Y-68908923D01*
X162615214Y-68919934D01*
X162532168Y-69082921D01*
X162527464Y-69095175D01*
X162480992Y-69268610D01*
X162444040Y-69329233D01*
X162380179Y-69360254D01*
X162309685Y-69351826D01*
X162254938Y-69306623D01*
X162246278Y-69291725D01*
X162235776Y-69270428D01*
X162214045Y-69241326D01*
X162117777Y-69112409D01*
X162114320Y-69107779D01*
X161965258Y-68969987D01*
X161960375Y-68966906D01*
X161960371Y-68966903D01*
X161798464Y-68864748D01*
X161793581Y-68861667D01*
X161605039Y-68786446D01*
X161599370Y-68785318D01*
X161599369Y-68785318D01*
X161581306Y-68781725D01*
X161518396Y-68748817D01*
X161498059Y-68723331D01*
X161395868Y-68554287D01*
X161395866Y-68554284D01*
X161393894Y-68551022D01*
X161391223Y-68547612D01*
X161225952Y-68336660D01*
X161223599Y-68333656D01*
X161028344Y-68138401D01*
X160810978Y-67968106D01*
X160703200Y-67902952D01*
X160655252Y-67850594D01*
X160643222Y-67780624D01*
X160670931Y-67715257D01*
X160679213Y-67706106D01*
X160722533Y-67662711D01*
X160784815Y-67628632D01*
X160811705Y-67625729D01*
X164263352Y-67625729D01*
X164281283Y-67627011D01*
X164292210Y-67628582D01*
X164335137Y-67626281D01*
X164353150Y-67625316D01*
X164362624Y-67626079D01*
G37*
%TD.AperFunction*%
%TA.AperFunction,Conductor*%
G36*
X163117177Y-64482502D02*
G01*
X163163670Y-64536158D01*
X163173774Y-64606432D01*
X163168649Y-64628167D01*
X163160982Y-64651282D01*
X163127695Y-64751641D01*
X163117000Y-64856023D01*
X163117000Y-64859240D01*
X163117001Y-65972271D01*
X163096999Y-66040392D01*
X163043343Y-66086885D01*
X162991001Y-66098271D01*
X162412000Y-66098271D01*
X162343879Y-66078269D01*
X162297386Y-66024613D01*
X162286000Y-65972271D01*
X162285999Y-64855594D01*
X162285999Y-64852628D01*
X162283022Y-64821125D01*
X162238199Y-64693488D01*
X162215944Y-64663357D01*
X162191562Y-64596682D01*
X162207098Y-64527406D01*
X162257622Y-64477527D01*
X162317296Y-64462500D01*
X163049056Y-64462500D01*
X163117177Y-64482502D01*
G37*
%TD.AperFunction*%
%TD*%
M02*
