%TF.GenerationSoftware,KiCad,Pcbnew,(6.0.2-0)*%
%TF.CreationDate,2022-02-20T07:54:05+00:00*%
%TF.ProjectId,Regulator,52656775-6c61-4746-9f72-2e6b69636164,1*%
%TF.SameCoordinates,Original*%
%TF.FileFunction,Legend,Top*%
%TF.FilePolarity,Positive*%
%FSLAX46Y46*%
G04 Gerber Fmt 4.6, Leading zero omitted, Abs format (unit mm)*
G04 Created by KiCad (PCBNEW (6.0.2-0)) date 2022-02-20 07:54:05*
%MOMM*%
%LPD*%
G01*
G04 APERTURE LIST*
%ADD10C,0.120000*%
%ADD11C,0.100000*%
G04 APERTURE END LIST*
D10*
X159004000Y-68580000D02*
G75*
G03*
X159004000Y-68580000I-254000J0D01*
G01*
X158750000Y-68580000D02*
X158750000Y-68326000D01*
D11*
X161290000Y-68806190D02*
X161290000Y-68425238D01*
X161194761Y-68520476D02*
X161290000Y-68425238D01*
X161385238Y-68520476D01*
X163591904Y-68520476D02*
X164068095Y-68520476D01*
X163687142Y-68663333D02*
X163972857Y-68663333D01*
X163830000Y-68306190D02*
X163830000Y-68520476D01*
X163877619Y-68806190D02*
X163782380Y-68806190D01*
X160885428Y-67456857D02*
X160980666Y-67790190D01*
X161075904Y-67552095D01*
X161171142Y-67790190D01*
X161266380Y-67456857D01*
X161409238Y-67456857D02*
X161504476Y-67790190D01*
X161599714Y-67552095D01*
X161694952Y-67790190D01*
X161790190Y-67456857D01*
X161933047Y-67456857D02*
X162028285Y-67790190D01*
X162123523Y-67552095D01*
X162218761Y-67790190D01*
X162314000Y-67456857D01*
X162504476Y-67742571D02*
X162528285Y-67766380D01*
X162504476Y-67790190D01*
X162480666Y-67766380D01*
X162504476Y-67742571D01*
X162504476Y-67790190D01*
X162742571Y-67790190D02*
X162742571Y-67456857D01*
X162742571Y-67504476D02*
X162766380Y-67480666D01*
X162814000Y-67456857D01*
X162885428Y-67456857D01*
X162933047Y-67480666D01*
X162956857Y-67528285D01*
X162956857Y-67790190D01*
X162956857Y-67528285D02*
X162980666Y-67480666D01*
X163028285Y-67456857D01*
X163099714Y-67456857D01*
X163147333Y-67480666D01*
X163171142Y-67528285D01*
X163171142Y-67790190D01*
X163599714Y-67766380D02*
X163552095Y-67790190D01*
X163456857Y-67790190D01*
X163409238Y-67766380D01*
X163385428Y-67718761D01*
X163385428Y-67528285D01*
X163409238Y-67480666D01*
X163456857Y-67456857D01*
X163552095Y-67456857D01*
X163599714Y-67480666D01*
X163623523Y-67528285D01*
X163623523Y-67575904D01*
X163385428Y-67623523D01*
X163837809Y-67742571D02*
X163861619Y-67766380D01*
X163837809Y-67790190D01*
X163814000Y-67766380D01*
X163837809Y-67742571D01*
X163837809Y-67790190D01*
X164290190Y-67456857D02*
X164290190Y-67790190D01*
X164075904Y-67456857D02*
X164075904Y-67718761D01*
X164099714Y-67766380D01*
X164147333Y-67790190D01*
X164218761Y-67790190D01*
X164266380Y-67766380D01*
X164290190Y-67742571D01*
X164528285Y-67790190D02*
X164528285Y-67290190D01*
X164575904Y-67599714D02*
X164718761Y-67790190D01*
X164718761Y-67456857D02*
X164528285Y-67647333D01*
X166370000Y-68425238D02*
X166370000Y-68806190D01*
X166465238Y-68710952D02*
X166370000Y-68806190D01*
X166274761Y-68710952D01*
D10*
%TO.C,U1*%
X159025500Y-61687000D02*
X162125500Y-61687000D01*
X162300500Y-64737000D02*
X162300500Y-66337000D01*
%TO.C,R2*%
X159273500Y-59179000D02*
X158673500Y-59179000D01*
X159273500Y-60179000D02*
X158673500Y-60179000D01*
%TO.C,R1*%
X165623500Y-59544000D02*
X165023500Y-59544000D01*
X165623500Y-58544000D02*
X165023500Y-58544000D01*
%TD*%
M02*
