%TF.GenerationSoftware,KiCad,Pcbnew,(6.0.2-0)*%
%TF.CreationDate,2022-02-19T16:59:35+00:00*%
%TF.ProjectId,Regulator,52656775-6c61-4746-9f72-2e6b69636164,rev?*%
%TF.SameCoordinates,Original*%
%TF.FileFunction,Copper,L2,Bot*%
%TF.FilePolarity,Positive*%
%FSLAX46Y46*%
G04 Gerber Fmt 4.6, Leading zero omitted, Abs format (unit mm)*
G04 Created by KiCad (PCBNEW (6.0.2-0)) date 2022-02-19 16:59:35*
%MOMM*%
%LPD*%
G01*
G04 APERTURE LIST*
G04 Aperture macros list*
%AMRoundRect*
0 Rectangle with rounded corners*
0 $1 Rounding radius*
0 $2 $3 $4 $5 $6 $7 $8 $9 X,Y pos of 4 corners*
0 Add a 4 corners polygon primitive as box body*
4,1,4,$2,$3,$4,$5,$6,$7,$8,$9,$2,$3,0*
0 Add four circle primitives for the rounded corners*
1,1,$1+$1,$2,$3*
1,1,$1+$1,$4,$5*
1,1,$1+$1,$6,$7*
1,1,$1+$1,$8,$9*
0 Add four rect primitives between the rounded corners*
20,1,$1+$1,$2,$3,$4,$5,0*
20,1,$1+$1,$4,$5,$6,$7,0*
20,1,$1+$1,$6,$7,$8,$9,0*
20,1,$1+$1,$8,$9,$2,$3,0*%
G04 Aperture macros list end*
%TA.AperFunction,EtchedComponent*%
%ADD10C,0.080000*%
%TD*%
%TA.AperFunction,EtchedComponent*%
%ADD11C,0.250000*%
%TD*%
%TA.AperFunction,ComponentPad*%
%ADD12C,1.700000*%
%TD*%
%TA.AperFunction,ComponentPad*%
%ADD13O,1.700000X1.700000*%
%TD*%
%TA.AperFunction,ComponentPad*%
%ADD14RoundRect,0.425000X0.425000X-0.425000X0.425000X0.425000X-0.425000X0.425000X-0.425000X-0.425000X0*%
%TD*%
%TA.AperFunction,ViaPad*%
%ADD15C,0.800000*%
%TD*%
%TA.AperFunction,ViaPad*%
%ADD16C,1.000000*%
%TD*%
%TA.AperFunction,Conductor*%
%ADD17C,0.250000*%
%TD*%
G04 APERTURE END LIST*
D10*
%TO.C,Logo1*%
X164553000Y-63578000D02*
X164453000Y-63578000D01*
D11*
X163703000Y-59368000D02*
X163703000Y-63568000D01*
D10*
X164553000Y-63418000D02*
X164553000Y-63718000D01*
D11*
X161903000Y-59468000D02*
X163703000Y-61468000D01*
X163703000Y-61468000D02*
X161903000Y-63568000D01*
D10*
X164453000Y-63578000D02*
X164353000Y-63718000D01*
D11*
X163703000Y-61468000D02*
X165203000Y-61468000D01*
X163703000Y-59368000D02*
X166703000Y-63568000D01*
D10*
X164553000Y-63418000D02*
X164453000Y-63418000D01*
X164453000Y-63418000D02*
G75*
G03*
X164453000Y-63578000I0J-80000D01*
G01*
D11*
X163703000Y-63568000D02*
G75*
G03*
X165203000Y-63568000I750000J0D01*
G01*
D10*
X164773000Y-63578000D02*
G75*
G03*
X164773000Y-63578000I-300000J0D01*
G01*
%TD*%
D12*
%TO.P,J1,1,Pin_1*%
%TO.N,Net-(J1-Pad1)*%
X166370000Y-69723000D03*
D13*
%TO.P,J1,2,Pin_2*%
%TO.N,Net-(J1-Pad2)*%
X163830000Y-69723000D03*
D14*
%TO.P,J1,3,Pin_3*%
%TO.N,GND*%
X161290000Y-69723000D03*
D13*
%TO.P,J1,4,Pin_4*%
%TO.N,Net-(J1-Pad4)*%
X158750000Y-69723000D03*
%TD*%
D15*
%TO.N,Net-(J1-Pad1)*%
X166243000Y-61535500D03*
D16*
%TO.N,GND*%
X161610000Y-60440000D03*
%TD*%
D17*
%TO.N,Net-(J1-Pad1)*%
X167259000Y-64389000D02*
X167259000Y-68834000D01*
X167259000Y-64389000D02*
G75*
G03*
X166119083Y-61636997I-3891924J-2D01*
G01*
X166370000Y-69723000D02*
G75*
G03*
X167259000Y-68834000I0J889000D01*
G01*
%TD*%
%TA.AperFunction,Conductor*%
%TO.N,GND*%
G36*
X167328121Y-58694002D02*
G01*
X167374614Y-58747658D01*
X167386000Y-58800000D01*
X167386000Y-62343825D01*
X167365998Y-62411946D01*
X167312342Y-62458439D01*
X167242068Y-62468543D01*
X167177488Y-62439049D01*
X167148237Y-62402005D01*
X167069762Y-62251256D01*
X166869355Y-61936681D01*
X166867678Y-61934495D01*
X166859172Y-61923409D01*
X166833572Y-61857188D01*
X166842228Y-61799710D01*
X166877006Y-61713198D01*
X166877008Y-61713191D01*
X166879842Y-61706141D01*
X166885965Y-61663115D01*
X166901581Y-61553391D01*
X166901581Y-61553388D01*
X166902162Y-61549307D01*
X166902307Y-61535500D01*
X166883276Y-61378233D01*
X166827280Y-61230046D01*
X166809177Y-61203706D01*
X166741855Y-61105751D01*
X166741854Y-61105749D01*
X166737553Y-61099492D01*
X166619275Y-60994111D01*
X166611889Y-60990200D01*
X166485988Y-60923539D01*
X166485989Y-60923539D01*
X166479274Y-60919984D01*
X166325633Y-60881392D01*
X166318034Y-60881352D01*
X166318033Y-60881352D01*
X166252181Y-60881007D01*
X166167221Y-60880562D01*
X166159841Y-60882334D01*
X166159839Y-60882334D01*
X166020563Y-60915771D01*
X166020560Y-60915772D01*
X166013184Y-60917543D01*
X165872414Y-60990200D01*
X165753039Y-61094338D01*
X165748672Y-61100552D01*
X165681122Y-61196665D01*
X165625587Y-61240896D01*
X165554955Y-61248082D01*
X165491651Y-61215941D01*
X165490764Y-61214925D01*
X165487197Y-61209401D01*
X165483165Y-61206222D01*
X165475505Y-61197450D01*
X164389687Y-59677306D01*
X164029966Y-59173697D01*
X164021609Y-59160294D01*
X164011556Y-59141663D01*
X164006610Y-59132496D01*
X163967606Y-59096441D01*
X163964021Y-59092992D01*
X163933834Y-59062792D01*
X163933830Y-59062789D01*
X163926470Y-59055426D01*
X163919585Y-59052051D01*
X163913957Y-59046849D01*
X163865355Y-59025362D01*
X163860921Y-59023297D01*
X163813174Y-58999893D01*
X163805568Y-58998930D01*
X163798557Y-58995831D01*
X163753519Y-58991930D01*
X163745643Y-58991248D01*
X163740695Y-58990721D01*
X163736904Y-58990241D01*
X163687998Y-58984052D01*
X163680492Y-58985605D01*
X163672853Y-58984943D01*
X163662745Y-58987454D01*
X163662743Y-58987454D01*
X163621298Y-58997749D01*
X163616448Y-58998853D01*
X163564439Y-59009612D01*
X163557840Y-59013513D01*
X163550399Y-59015361D01*
X163534875Y-59025385D01*
X163505772Y-59044177D01*
X163501537Y-59046794D01*
X163464785Y-59068517D01*
X163464783Y-59068519D01*
X163455821Y-59073816D01*
X163450840Y-59079645D01*
X163444401Y-59083803D01*
X163437954Y-59091981D01*
X163437953Y-59091982D01*
X163411521Y-59125512D01*
X163408368Y-59129353D01*
X163373856Y-59169743D01*
X163371032Y-59176871D01*
X163366287Y-59182890D01*
X163362836Y-59192717D01*
X163348693Y-59232991D01*
X163346955Y-59237646D01*
X163327383Y-59287047D01*
X163327020Y-59294708D01*
X163324481Y-59301938D01*
X163324000Y-59307491D01*
X163324000Y-59355467D01*
X163323859Y-59361430D01*
X163321412Y-59413080D01*
X163323570Y-59420512D01*
X163324000Y-59427827D01*
X163324000Y-60151991D01*
X163303998Y-60220112D01*
X163250342Y-60266605D01*
X163180068Y-60276709D01*
X163115488Y-60247215D01*
X163104345Y-60236281D01*
X162167119Y-59194919D01*
X162167118Y-59194918D01*
X162163644Y-59191058D01*
X162145849Y-59176871D01*
X162098090Y-59138796D01*
X162098088Y-59138795D01*
X162089945Y-59132303D01*
X161971128Y-59089847D01*
X161960716Y-59089708D01*
X161960714Y-59089708D01*
X161908046Y-59089008D01*
X161844964Y-59088168D01*
X161725059Y-59127445D01*
X161716746Y-59133717D01*
X161716747Y-59133717D01*
X161632653Y-59197170D01*
X161632652Y-59197171D01*
X161624340Y-59203443D01*
X161618507Y-59212071D01*
X161565821Y-59289998D01*
X161553670Y-59307970D01*
X161550946Y-59318022D01*
X161550945Y-59318024D01*
X161539989Y-59358454D01*
X161520667Y-59429752D01*
X161528891Y-59555658D01*
X161577456Y-59672112D01*
X161580813Y-59676562D01*
X163124564Y-61391841D01*
X163155266Y-61455854D01*
X163146486Y-61526305D01*
X163126574Y-61558129D01*
X161603164Y-63335442D01*
X161594750Y-63345258D01*
X161545992Y-63425920D01*
X161543783Y-63436091D01*
X161543783Y-63436092D01*
X161540888Y-63449423D01*
X161519218Y-63549221D01*
X161520423Y-63559559D01*
X161520423Y-63559560D01*
X161522925Y-63581018D01*
X161533827Y-63674547D01*
X161561035Y-63731466D01*
X161583752Y-63778990D01*
X161583754Y-63778992D01*
X161588243Y-63788384D01*
X161676599Y-63878458D01*
X161789369Y-63935055D01*
X161914390Y-63952072D01*
X161924610Y-63950058D01*
X161924611Y-63950058D01*
X162027964Y-63929690D01*
X162038184Y-63927676D01*
X162111682Y-63885158D01*
X162140545Y-63868461D01*
X162140547Y-63868459D01*
X162147400Y-63864495D01*
X162151380Y-63860592D01*
X163102335Y-62751145D01*
X163161853Y-62712441D01*
X163232848Y-62712060D01*
X163292780Y-62750122D01*
X163322619Y-62814544D01*
X163324000Y-62833145D01*
X163324000Y-63528256D01*
X163322449Y-63547966D01*
X163319276Y-63568000D01*
X163320194Y-63573797D01*
X163336905Y-63764798D01*
X163364681Y-63868461D01*
X163382807Y-63936107D01*
X163388034Y-63955616D01*
X163390357Y-63960597D01*
X163390357Y-63960598D01*
X163469196Y-64129670D01*
X163469199Y-64129675D01*
X163471522Y-64134657D01*
X163584832Y-64296480D01*
X163724520Y-64436168D01*
X163886344Y-64549478D01*
X163891322Y-64551799D01*
X163891325Y-64551801D01*
X164060402Y-64630643D01*
X164065384Y-64632966D01*
X164070692Y-64634388D01*
X164070694Y-64634389D01*
X164250887Y-64682671D01*
X164250888Y-64682671D01*
X164256202Y-64684095D01*
X164453000Y-64701313D01*
X164649798Y-64684095D01*
X164655112Y-64682671D01*
X164655113Y-64682671D01*
X164835306Y-64634389D01*
X164835308Y-64634388D01*
X164840616Y-64632966D01*
X164845598Y-64630643D01*
X165014670Y-64551804D01*
X165014675Y-64551801D01*
X165019657Y-64549478D01*
X165110051Y-64486183D01*
X165176969Y-64439327D01*
X165176972Y-64439325D01*
X165181480Y-64436168D01*
X165321168Y-64296480D01*
X165434478Y-64134657D01*
X165436801Y-64129675D01*
X165436804Y-64129670D01*
X165515643Y-63960598D01*
X165515643Y-63960597D01*
X165517966Y-63955616D01*
X165523194Y-63936107D01*
X165541319Y-63868461D01*
X165569095Y-63764798D01*
X165585806Y-63573797D01*
X165586724Y-63568000D01*
X165567943Y-63449423D01*
X165513439Y-63342453D01*
X165428547Y-63257561D01*
X165321577Y-63203057D01*
X165311787Y-63201506D01*
X165311786Y-63201506D01*
X165212792Y-63185827D01*
X165203000Y-63184276D01*
X165193208Y-63185827D01*
X165094214Y-63201506D01*
X165094213Y-63201506D01*
X165084423Y-63203057D01*
X165069666Y-63210576D01*
X164999891Y-63223681D01*
X164934106Y-63196983D01*
X164912500Y-63175014D01*
X164901673Y-63160904D01*
X164901669Y-63160900D01*
X164896646Y-63154354D01*
X164772563Y-63059142D01*
X164628065Y-62999289D01*
X164473000Y-62978874D01*
X164317935Y-62999289D01*
X164310303Y-63002450D01*
X164310304Y-63002450D01*
X164256218Y-63024853D01*
X164185628Y-63032442D01*
X164122141Y-63000663D01*
X164085914Y-62939605D01*
X164082000Y-62908444D01*
X164082000Y-61973000D01*
X164102002Y-61904879D01*
X164155658Y-61858386D01*
X164208000Y-61847000D01*
X164943119Y-61847000D01*
X165011240Y-61867002D01*
X165045648Y-61899763D01*
X165533031Y-62582100D01*
X166399973Y-63795818D01*
X166412897Y-63813912D01*
X166479530Y-63880573D01*
X166592826Y-63936107D01*
X166646402Y-63942887D01*
X166707670Y-63950640D01*
X166707673Y-63950640D01*
X166718002Y-63951947D01*
X166728198Y-63949838D01*
X166733032Y-63949649D01*
X166801882Y-63966977D01*
X166850433Y-64018777D01*
X166863798Y-64069371D01*
X166877740Y-64353180D01*
X166876341Y-64379071D01*
X166876320Y-64379204D01*
X166876320Y-64379208D01*
X166874769Y-64389000D01*
X166876320Y-64398792D01*
X166877949Y-64409077D01*
X166879500Y-64428788D01*
X166879500Y-68492500D01*
X166859498Y-68560621D01*
X166805842Y-68607114D01*
X166753500Y-68618500D01*
X165559758Y-68618501D01*
X165494934Y-68618501D01*
X165459182Y-68625612D01*
X165432874Y-68630844D01*
X165432872Y-68630845D01*
X165420699Y-68633266D01*
X165410379Y-68640161D01*
X165410378Y-68640162D01*
X165349985Y-68680516D01*
X165336516Y-68689516D01*
X165280266Y-68773699D01*
X165265500Y-68847933D01*
X165265501Y-70598066D01*
X165267836Y-70609805D01*
X165277323Y-70657503D01*
X165280266Y-70672301D01*
X165287161Y-70682621D01*
X165290957Y-70691784D01*
X165298545Y-70762374D01*
X165266764Y-70825860D01*
X165205705Y-70862087D01*
X165174547Y-70866000D01*
X164530146Y-70866000D01*
X164462025Y-70845998D01*
X164415532Y-70792342D01*
X164405428Y-70722068D01*
X164434922Y-70657488D01*
X164456669Y-70638047D01*
X164458276Y-70637147D01*
X164614345Y-70507345D01*
X164744147Y-70351276D01*
X164843334Y-70174165D01*
X164845190Y-70168698D01*
X164845192Y-70168693D01*
X164906728Y-69987414D01*
X164906729Y-69987409D01*
X164908584Y-69981945D01*
X164909412Y-69976236D01*
X164909413Y-69976231D01*
X164937179Y-69784727D01*
X164937712Y-69781053D01*
X164939232Y-69723000D01*
X164920658Y-69520859D01*
X164919090Y-69515299D01*
X164867125Y-69331046D01*
X164867124Y-69331044D01*
X164865557Y-69325487D01*
X164845031Y-69283863D01*
X164778331Y-69148609D01*
X164775776Y-69143428D01*
X164654320Y-68980779D01*
X164505258Y-68842987D01*
X164500375Y-68839906D01*
X164500371Y-68839903D01*
X164338464Y-68737748D01*
X164333581Y-68734667D01*
X164145039Y-68659446D01*
X164139379Y-68658320D01*
X164139375Y-68658319D01*
X163951613Y-68620971D01*
X163951610Y-68620971D01*
X163945946Y-68619844D01*
X163940171Y-68619768D01*
X163940167Y-68619768D01*
X163838793Y-68618441D01*
X163742971Y-68617187D01*
X163737274Y-68618166D01*
X163737273Y-68618166D01*
X163663492Y-68630844D01*
X163542910Y-68651564D01*
X163352463Y-68721824D01*
X163178010Y-68825612D01*
X163173670Y-68829418D01*
X163173666Y-68829421D01*
X163041536Y-68945297D01*
X163025392Y-68959455D01*
X162899720Y-69118869D01*
X162897031Y-69123980D01*
X162897029Y-69123983D01*
X162807589Y-69293980D01*
X162758170Y-69344952D01*
X162689037Y-69361115D01*
X162622141Y-69337336D01*
X162582003Y-69282973D01*
X162579955Y-69283863D01*
X162492972Y-69083814D01*
X162488105Y-69074739D01*
X162372426Y-68895926D01*
X162366136Y-68887757D01*
X162222806Y-68730240D01*
X162215273Y-68723215D01*
X162048139Y-68591222D01*
X162039552Y-68585517D01*
X161853117Y-68482599D01*
X161843705Y-68478369D01*
X161642959Y-68407280D01*
X161632988Y-68404646D01*
X161561837Y-68391972D01*
X161548540Y-68393432D01*
X161544000Y-68407989D01*
X161544000Y-69851000D01*
X161523998Y-69919121D01*
X161470342Y-69965614D01*
X161418000Y-69977000D01*
X161162000Y-69977000D01*
X161093879Y-69956998D01*
X161047386Y-69903342D01*
X161036000Y-69851000D01*
X161036000Y-68406102D01*
X161032082Y-68392758D01*
X161017806Y-68390771D01*
X160979324Y-68396660D01*
X160969288Y-68399051D01*
X160766868Y-68465212D01*
X160757359Y-68469209D01*
X160568463Y-68567542D01*
X160559738Y-68573036D01*
X160389433Y-68700905D01*
X160381726Y-68707748D01*
X160234590Y-68861717D01*
X160228104Y-68869727D01*
X160108098Y-69045649D01*
X160103000Y-69054623D01*
X160013338Y-69247783D01*
X160009777Y-69257464D01*
X160005291Y-69273640D01*
X159967813Y-69333939D01*
X159903684Y-69364403D01*
X159833266Y-69355360D01*
X159778915Y-69309682D01*
X159770867Y-69295698D01*
X159698331Y-69148609D01*
X159695776Y-69143428D01*
X159574320Y-68980779D01*
X159425258Y-68842987D01*
X159420375Y-68839906D01*
X159420371Y-68839903D01*
X159258464Y-68737748D01*
X159253581Y-68734667D01*
X159065039Y-68659446D01*
X159059379Y-68658320D01*
X159059375Y-68658319D01*
X158871613Y-68620971D01*
X158871610Y-68620971D01*
X158865946Y-68619844D01*
X158860171Y-68619768D01*
X158860167Y-68619768D01*
X158758793Y-68618441D01*
X158662971Y-68617187D01*
X158657274Y-68618166D01*
X158657273Y-68618166D01*
X158583492Y-68630844D01*
X158462910Y-68651564D01*
X158272463Y-68721824D01*
X158098010Y-68825612D01*
X158093670Y-68829418D01*
X158093666Y-68829421D01*
X157945392Y-68959455D01*
X157944184Y-68958078D01*
X157890011Y-68989536D01*
X157819086Y-68986334D01*
X157761152Y-68945297D01*
X157734601Y-68879452D01*
X157734000Y-68867162D01*
X157734000Y-58800000D01*
X157754002Y-58731879D01*
X157807658Y-58685386D01*
X157860000Y-58674000D01*
X167260000Y-58674000D01*
X167328121Y-58694002D01*
G37*
%TD.AperFunction*%
%TD*%
M02*
