%TF.GenerationSoftware,KiCad,Pcbnew,(6.0.2-0)*%
%TF.CreationDate,2022-02-20T07:54:05+00:00*%
%TF.ProjectId,Regulator,52656775-6c61-4746-9f72-2e6b69636164,1*%
%TF.SameCoordinates,Original*%
%TF.FileFunction,Copper,L2,Bot*%
%TF.FilePolarity,Positive*%
%FSLAX46Y46*%
G04 Gerber Fmt 4.6, Leading zero omitted, Abs format (unit mm)*
G04 Created by KiCad (PCBNEW (6.0.2-0)) date 2022-02-20 07:54:05*
%MOMM*%
%LPD*%
G01*
G04 APERTURE LIST*
G04 Aperture macros list*
%AMRoundRect*
0 Rectangle with rounded corners*
0 $1 Rounding radius*
0 $2 $3 $4 $5 $6 $7 $8 $9 X,Y pos of 4 corners*
0 Add a 4 corners polygon primitive as box body*
4,1,4,$2,$3,$4,$5,$6,$7,$8,$9,$2,$3,0*
0 Add four circle primitives for the rounded corners*
1,1,$1+$1,$2,$3*
1,1,$1+$1,$4,$5*
1,1,$1+$1,$6,$7*
1,1,$1+$1,$8,$9*
0 Add four rect primitives between the rounded corners*
20,1,$1+$1,$2,$3,$4,$5,0*
20,1,$1+$1,$4,$5,$6,$7,0*
20,1,$1+$1,$6,$7,$8,$9,0*
20,1,$1+$1,$8,$9,$2,$3,0*%
G04 Aperture macros list end*
%TA.AperFunction,EtchedComponent*%
%ADD10C,0.250000*%
%TD*%
%TA.AperFunction,EtchedComponent*%
%ADD11C,0.080000*%
%TD*%
%TA.AperFunction,SMDPad,CuDef*%
%ADD12R,1.700000X1.270000*%
%TD*%
%TA.AperFunction,ComponentPad*%
%ADD13C,1.700000*%
%TD*%
%TA.AperFunction,ComponentPad*%
%ADD14O,1.700000X1.700000*%
%TD*%
%TA.AperFunction,ComponentPad*%
%ADD15RoundRect,0.425000X0.425000X-0.425000X0.425000X0.425000X-0.425000X0.425000X-0.425000X-0.425000X0*%
%TD*%
%TA.AperFunction,ViaPad*%
%ADD16C,1.000000*%
%TD*%
G04 APERTURE END LIST*
D10*
%TO.C,Logo1*%
X161960000Y-59368000D02*
X161960000Y-63568000D01*
X161960000Y-61468000D02*
X163460000Y-61468000D01*
D11*
X162810000Y-63578000D02*
X162710000Y-63578000D01*
D10*
X161960000Y-61468000D02*
X160160000Y-63568000D01*
X160160000Y-59468000D02*
X161960000Y-61468000D01*
D11*
X162710000Y-63578000D02*
X162610000Y-63718000D01*
X162810000Y-63418000D02*
X162710000Y-63418000D01*
D10*
X161960000Y-59368000D02*
X164960000Y-63568000D01*
D11*
X162810000Y-63418000D02*
X162810000Y-63718000D01*
X162710000Y-63418000D02*
G75*
G03*
X162710000Y-63578000I0J-80000D01*
G01*
D10*
X161960000Y-63568000D02*
G75*
G03*
X163460000Y-63568000I750000J0D01*
G01*
D11*
X163030000Y-63578000D02*
G75*
G03*
X163030000Y-63578000I-300000J0D01*
G01*
%TD*%
D12*
%TO.P,J1,4,Pin_4*%
%TO.N,Net-(J1-Pad4)*%
X166370000Y-70485000D03*
%TO.P,J1,3,Pin_3*%
%TO.N,GND*%
X163830000Y-70485000D03*
%TO.P,J1,2,Pin_2*%
%TO.N,Net-(J1-Pad2)*%
X161290000Y-70485000D03*
%TO.P,J1,1,Pin_1*%
%TO.N,Net-(J1-Pad1)*%
X158750000Y-70485000D03*
D13*
X158750000Y-69850000D03*
D14*
%TO.P,J1,2,Pin_2*%
%TO.N,Net-(J1-Pad2)*%
X161290000Y-69850000D03*
D15*
%TO.P,J1,3,Pin_3*%
%TO.N,GND*%
X163830000Y-69850000D03*
D14*
%TO.P,J1,4,Pin_4*%
%TO.N,Net-(J1-Pad4)*%
X166370000Y-69850000D03*
%TD*%
D16*
%TO.N,GND*%
X162854500Y-65532000D03*
%TD*%
%TA.AperFunction,Conductor*%
%TO.N,GND*%
G36*
X166992153Y-58676421D02*
G01*
X167005000Y-58678976D01*
X167016918Y-58676605D01*
X167032594Y-58677633D01*
X167087163Y-58684817D01*
X167118934Y-58693330D01*
X167149555Y-58706013D01*
X167180174Y-58718696D01*
X167208659Y-58735142D01*
X167261247Y-58775494D01*
X167284506Y-58798753D01*
X167324858Y-58851341D01*
X167341304Y-58879826D01*
X167366670Y-58941064D01*
X167375183Y-58972837D01*
X167382367Y-59027406D01*
X167383395Y-59043082D01*
X167381024Y-59055000D01*
X167383445Y-59067170D01*
X167383579Y-59067844D01*
X167386000Y-59092425D01*
X167386000Y-68996907D01*
X167365998Y-69065028D01*
X167312342Y-69111521D01*
X167242068Y-69121625D01*
X167174471Y-69089431D01*
X167167134Y-69082648D01*
X167045258Y-68969987D01*
X167040375Y-68966906D01*
X167040371Y-68966903D01*
X166878464Y-68864748D01*
X166873581Y-68861667D01*
X166685039Y-68786446D01*
X166679379Y-68785320D01*
X166679375Y-68785319D01*
X166491613Y-68747971D01*
X166491610Y-68747971D01*
X166485946Y-68746844D01*
X166480171Y-68746768D01*
X166480167Y-68746768D01*
X166378793Y-68745441D01*
X166282971Y-68744187D01*
X166277274Y-68745166D01*
X166277273Y-68745166D01*
X166151593Y-68766762D01*
X166082910Y-68778564D01*
X165892463Y-68848824D01*
X165718010Y-68952612D01*
X165713670Y-68956418D01*
X165713666Y-68956421D01*
X165589825Y-69065028D01*
X165565392Y-69086455D01*
X165561817Y-69090990D01*
X165561816Y-69090991D01*
X165544931Y-69112409D01*
X165439720Y-69245869D01*
X165437031Y-69250980D01*
X165437029Y-69250983D01*
X165412838Y-69296963D01*
X165363419Y-69347935D01*
X165294286Y-69364098D01*
X165227390Y-69340319D01*
X165183970Y-69284148D01*
X165179623Y-69270906D01*
X165132536Y-69095175D01*
X165127832Y-69082921D01*
X165044786Y-68919934D01*
X165037636Y-68908923D01*
X164922515Y-68766762D01*
X164913238Y-68757485D01*
X164771077Y-68642364D01*
X164760066Y-68635214D01*
X164597079Y-68552168D01*
X164584825Y-68547464D01*
X164407334Y-68499905D01*
X164396001Y-68497958D01*
X164322754Y-68492193D01*
X164317827Y-68492000D01*
X164102115Y-68492000D01*
X164086876Y-68496475D01*
X164085671Y-68497865D01*
X164084000Y-68505548D01*
X164084000Y-69978000D01*
X164063998Y-70046121D01*
X164010342Y-70092614D01*
X163958000Y-70104000D01*
X163702000Y-70104000D01*
X163633879Y-70083998D01*
X163587386Y-70030342D01*
X163576000Y-69978000D01*
X163576000Y-68510116D01*
X163571525Y-68494877D01*
X163570135Y-68493672D01*
X163562452Y-68492001D01*
X163342175Y-68492001D01*
X163337244Y-68492195D01*
X163263997Y-68497958D01*
X163252668Y-68499905D01*
X163075175Y-68547464D01*
X163062921Y-68552168D01*
X162899934Y-68635214D01*
X162888923Y-68642364D01*
X162746762Y-68757485D01*
X162737485Y-68766762D01*
X162622364Y-68908923D01*
X162615214Y-68919934D01*
X162532168Y-69082921D01*
X162527464Y-69095175D01*
X162480992Y-69268610D01*
X162444040Y-69329233D01*
X162380179Y-69360254D01*
X162309685Y-69351826D01*
X162254938Y-69306623D01*
X162246278Y-69291725D01*
X162235776Y-69270428D01*
X162114320Y-69107779D01*
X161965258Y-68969987D01*
X161960375Y-68966906D01*
X161960371Y-68966903D01*
X161798464Y-68864748D01*
X161793581Y-68861667D01*
X161605039Y-68786446D01*
X161599379Y-68785320D01*
X161599375Y-68785319D01*
X161411613Y-68747971D01*
X161411610Y-68747971D01*
X161405946Y-68746844D01*
X161400171Y-68746768D01*
X161400167Y-68746768D01*
X161298793Y-68745441D01*
X161202971Y-68744187D01*
X161197274Y-68745166D01*
X161197273Y-68745166D01*
X161071593Y-68766762D01*
X161002910Y-68778564D01*
X160812463Y-68848824D01*
X160638010Y-68952612D01*
X160633670Y-68956418D01*
X160633666Y-68956421D01*
X160509825Y-69065028D01*
X160485392Y-69086455D01*
X160481817Y-69090990D01*
X160481816Y-69090991D01*
X160464931Y-69112409D01*
X160359720Y-69245869D01*
X160357031Y-69250980D01*
X160357029Y-69250983D01*
X160315860Y-69329233D01*
X160265203Y-69425515D01*
X160205007Y-69619378D01*
X160181148Y-69820964D01*
X160194424Y-70023522D01*
X160195845Y-70029118D01*
X160195846Y-70029123D01*
X160214863Y-70104000D01*
X160244392Y-70220269D01*
X160246809Y-70225512D01*
X160314827Y-70373055D01*
X160329377Y-70404616D01*
X160446533Y-70570389D01*
X160450675Y-70574424D01*
X160527996Y-70649746D01*
X160562834Y-70711607D01*
X160558697Y-70782483D01*
X160516898Y-70839871D01*
X160450709Y-70865550D01*
X160440075Y-70866000D01*
X159604357Y-70866000D01*
X159536236Y-70845998D01*
X159489743Y-70792342D01*
X159479639Y-70722068D01*
X159509133Y-70657488D01*
X159523788Y-70643126D01*
X159529908Y-70638036D01*
X159529913Y-70638031D01*
X159534345Y-70634345D01*
X159664147Y-70478276D01*
X159763334Y-70301165D01*
X159765190Y-70295698D01*
X159765192Y-70295693D01*
X159826728Y-70114414D01*
X159826729Y-70114409D01*
X159828584Y-70108945D01*
X159829412Y-70103236D01*
X159829413Y-70103231D01*
X159857179Y-69911727D01*
X159857712Y-69908053D01*
X159859232Y-69850000D01*
X159840658Y-69647859D01*
X159839090Y-69642299D01*
X159787125Y-69458046D01*
X159787124Y-69458044D01*
X159785557Y-69452487D01*
X159774978Y-69431033D01*
X159698331Y-69275609D01*
X159698330Y-69275608D01*
X159695776Y-69270428D01*
X159574320Y-69107779D01*
X159425258Y-68969987D01*
X159420375Y-68966906D01*
X159420371Y-68966903D01*
X159258464Y-68864748D01*
X159253581Y-68861667D01*
X159065039Y-68786446D01*
X159059379Y-68785320D01*
X159059375Y-68785319D01*
X158871613Y-68747971D01*
X158871610Y-68747971D01*
X158865946Y-68746844D01*
X158860171Y-68746768D01*
X158860167Y-68746768D01*
X158758793Y-68745441D01*
X158662971Y-68744187D01*
X158657274Y-68745166D01*
X158657273Y-68745166D01*
X158531593Y-68766762D01*
X158462910Y-68778564D01*
X158272463Y-68848824D01*
X158098010Y-68952612D01*
X158093670Y-68956418D01*
X158093666Y-68956421D01*
X157945392Y-69086455D01*
X157944184Y-69085078D01*
X157890011Y-69116536D01*
X157819086Y-69113334D01*
X157761152Y-69072297D01*
X157734601Y-69006452D01*
X157734000Y-68994162D01*
X157734000Y-63549221D01*
X159776218Y-63549221D01*
X159777423Y-63559559D01*
X159777423Y-63559560D01*
X159787844Y-63648953D01*
X159790827Y-63674547D01*
X159818035Y-63731466D01*
X159840752Y-63778990D01*
X159840754Y-63778992D01*
X159845243Y-63788384D01*
X159933599Y-63878458D01*
X160046369Y-63935055D01*
X160171390Y-63952072D01*
X160181610Y-63950058D01*
X160181611Y-63950058D01*
X160284964Y-63929690D01*
X160295184Y-63927676D01*
X160368682Y-63885158D01*
X160397545Y-63868461D01*
X160397547Y-63868459D01*
X160404400Y-63864495D01*
X160408380Y-63860592D01*
X161359335Y-62751145D01*
X161418853Y-62712441D01*
X161489848Y-62712060D01*
X161549780Y-62750122D01*
X161579619Y-62814544D01*
X161581000Y-62833145D01*
X161581000Y-63528256D01*
X161579449Y-63547966D01*
X161576276Y-63568000D01*
X161577194Y-63573797D01*
X161593905Y-63764798D01*
X161621419Y-63867483D01*
X161639807Y-63936107D01*
X161645034Y-63955616D01*
X161647357Y-63960597D01*
X161647357Y-63960598D01*
X161726196Y-64129670D01*
X161726199Y-64129675D01*
X161728522Y-64134657D01*
X161841832Y-64296480D01*
X161981520Y-64436168D01*
X162143344Y-64549478D01*
X162148322Y-64551799D01*
X162148325Y-64551801D01*
X162317402Y-64630643D01*
X162322384Y-64632966D01*
X162327692Y-64634388D01*
X162327694Y-64634389D01*
X162507887Y-64682671D01*
X162507888Y-64682671D01*
X162513202Y-64684095D01*
X162710000Y-64701313D01*
X162906798Y-64684095D01*
X162912112Y-64682671D01*
X162912113Y-64682671D01*
X163092306Y-64634389D01*
X163092308Y-64634388D01*
X163097616Y-64632966D01*
X163102598Y-64630643D01*
X163271670Y-64551804D01*
X163271675Y-64551801D01*
X163276657Y-64549478D01*
X163367051Y-64486183D01*
X163433969Y-64439327D01*
X163433972Y-64439325D01*
X163438480Y-64436168D01*
X163578168Y-64296480D01*
X163691478Y-64134657D01*
X163693801Y-64129675D01*
X163693804Y-64129670D01*
X163772643Y-63960598D01*
X163772643Y-63960597D01*
X163774966Y-63955616D01*
X163780194Y-63936107D01*
X163798581Y-63867483D01*
X163826095Y-63764798D01*
X163842806Y-63573797D01*
X163843724Y-63568000D01*
X163824943Y-63449423D01*
X163770439Y-63342453D01*
X163685547Y-63257561D01*
X163578577Y-63203057D01*
X163568787Y-63201506D01*
X163568786Y-63201506D01*
X163469792Y-63185827D01*
X163460000Y-63184276D01*
X163450208Y-63185827D01*
X163351214Y-63201506D01*
X163351213Y-63201506D01*
X163341423Y-63203057D01*
X163326666Y-63210576D01*
X163256891Y-63223681D01*
X163191106Y-63196983D01*
X163169500Y-63175014D01*
X163158673Y-63160904D01*
X163158669Y-63160900D01*
X163153646Y-63154354D01*
X163029563Y-63059142D01*
X162885065Y-62999289D01*
X162730000Y-62978874D01*
X162574935Y-62999289D01*
X162567303Y-63002450D01*
X162567304Y-63002450D01*
X162513218Y-63024853D01*
X162442628Y-63032442D01*
X162379141Y-63000663D01*
X162342914Y-62939605D01*
X162339000Y-62908444D01*
X162339000Y-61973000D01*
X162359002Y-61904879D01*
X162412658Y-61858386D01*
X162465000Y-61847000D01*
X163200119Y-61847000D01*
X163268240Y-61867002D01*
X163302648Y-61899763D01*
X163882860Y-62712060D01*
X164656973Y-63795818D01*
X164669897Y-63813912D01*
X164736530Y-63880573D01*
X164849826Y-63936107D01*
X164903402Y-63942887D01*
X164964670Y-63950640D01*
X164964673Y-63950640D01*
X164975002Y-63951947D01*
X164985197Y-63949838D01*
X164985199Y-63949838D01*
X165088368Y-63928497D01*
X165088371Y-63928496D01*
X165098561Y-63926388D01*
X165207179Y-63862184D01*
X165289144Y-63766256D01*
X165335617Y-63648953D01*
X165341588Y-63522920D01*
X165317688Y-63440590D01*
X165308621Y-63409359D01*
X165308620Y-63409358D01*
X165306411Y-63401747D01*
X165303575Y-63396949D01*
X164538792Y-62326252D01*
X163775628Y-61257823D01*
X163772306Y-61252935D01*
X163749845Y-61218149D01*
X163744197Y-61209401D01*
X163738172Y-61204651D01*
X163733630Y-61199026D01*
X163551350Y-60943834D01*
X162286966Y-59173697D01*
X162278609Y-59160294D01*
X162268556Y-59141663D01*
X162263610Y-59132496D01*
X162224606Y-59096441D01*
X162221021Y-59092992D01*
X162190834Y-59062792D01*
X162190830Y-59062789D01*
X162183470Y-59055426D01*
X162176585Y-59052051D01*
X162170957Y-59046849D01*
X162122355Y-59025362D01*
X162117921Y-59023297D01*
X162070174Y-58999893D01*
X162062568Y-58998930D01*
X162055557Y-58995831D01*
X162010519Y-58991930D01*
X162002643Y-58991248D01*
X161997695Y-58990721D01*
X161993904Y-58990241D01*
X161944998Y-58984052D01*
X161937492Y-58985605D01*
X161929853Y-58984943D01*
X161919745Y-58987454D01*
X161919743Y-58987454D01*
X161878298Y-58997749D01*
X161873448Y-58998853D01*
X161821439Y-59009612D01*
X161814840Y-59013513D01*
X161807399Y-59015361D01*
X161769323Y-59039947D01*
X161762772Y-59044177D01*
X161758537Y-59046794D01*
X161721785Y-59068517D01*
X161721783Y-59068519D01*
X161712821Y-59073816D01*
X161707840Y-59079645D01*
X161701401Y-59083803D01*
X161694954Y-59091981D01*
X161694953Y-59091982D01*
X161668521Y-59125512D01*
X161665368Y-59129353D01*
X161630856Y-59169743D01*
X161628032Y-59176871D01*
X161623287Y-59182890D01*
X161619836Y-59192717D01*
X161605693Y-59232991D01*
X161603955Y-59237646D01*
X161584383Y-59287047D01*
X161584020Y-59294708D01*
X161581481Y-59301938D01*
X161581000Y-59307491D01*
X161581000Y-59355467D01*
X161580859Y-59361430D01*
X161578412Y-59413080D01*
X161580570Y-59420512D01*
X161581000Y-59427827D01*
X161581000Y-60151991D01*
X161560998Y-60220112D01*
X161507342Y-60266605D01*
X161437068Y-60276709D01*
X161372488Y-60247215D01*
X161361345Y-60236281D01*
X160424119Y-59194919D01*
X160424118Y-59194918D01*
X160420644Y-59191058D01*
X160402849Y-59176871D01*
X160355090Y-59138796D01*
X160355088Y-59138795D01*
X160346945Y-59132303D01*
X160228128Y-59089847D01*
X160217716Y-59089708D01*
X160217714Y-59089708D01*
X160165046Y-59089008D01*
X160101964Y-59088168D01*
X159982059Y-59127445D01*
X159973746Y-59133717D01*
X159973747Y-59133717D01*
X159889653Y-59197170D01*
X159889652Y-59197171D01*
X159881340Y-59203443D01*
X159875507Y-59212071D01*
X159822821Y-59289998D01*
X159810670Y-59307970D01*
X159807946Y-59318022D01*
X159807945Y-59318024D01*
X159796989Y-59358454D01*
X159777667Y-59429752D01*
X159785891Y-59555658D01*
X159834456Y-59672112D01*
X159837813Y-59676562D01*
X161381564Y-61391841D01*
X161412266Y-61455854D01*
X161403486Y-61526305D01*
X161383574Y-61558129D01*
X159860164Y-63335442D01*
X159851750Y-63345258D01*
X159802992Y-63425920D01*
X159800783Y-63436091D01*
X159800783Y-63436092D01*
X159797888Y-63449423D01*
X159776218Y-63549221D01*
X157734000Y-63549221D01*
X157734000Y-59092425D01*
X157736421Y-59067844D01*
X157736555Y-59067170D01*
X157738976Y-59055000D01*
X157736605Y-59043082D01*
X157737633Y-59027406D01*
X157744817Y-58972837D01*
X157753330Y-58941064D01*
X157778696Y-58879826D01*
X157795142Y-58851341D01*
X157835494Y-58798753D01*
X157858753Y-58775494D01*
X157911341Y-58735142D01*
X157939826Y-58718696D01*
X157970445Y-58706013D01*
X158001066Y-58693330D01*
X158032837Y-58684817D01*
X158087406Y-58677633D01*
X158103082Y-58676605D01*
X158115000Y-58678976D01*
X158127847Y-58676421D01*
X158152425Y-58674000D01*
X166967575Y-58674000D01*
X166992153Y-58676421D01*
G37*
%TD.AperFunction*%
%TD*%
M02*
