%TF.GenerationSoftware,KiCad,Pcbnew,(6.0.5-0)*%
%TF.CreationDate,2022-05-08T16:30:09+01:00*%
%TF.ProjectId,Regulator,52656775-6c61-4746-9f72-2e6b69636164,1*%
%TF.SameCoordinates,Original*%
%TF.FileFunction,Copper,L2,Bot*%
%TF.FilePolarity,Positive*%
%FSLAX46Y46*%
G04 Gerber Fmt 4.6, Leading zero omitted, Abs format (unit mm)*
G04 Created by KiCad (PCBNEW (6.0.5-0)) date 2022-05-08 16:30:09*
%MOMM*%
%LPD*%
G01*
G04 APERTURE LIST*
G04 Aperture macros list*
%AMRoundRect*
0 Rectangle with rounded corners*
0 $1 Rounding radius*
0 $2 $3 $4 $5 $6 $7 $8 $9 X,Y pos of 4 corners*
0 Add a 4 corners polygon primitive as box body*
4,1,4,$2,$3,$4,$5,$6,$7,$8,$9,$2,$3,0*
0 Add four circle primitives for the rounded corners*
1,1,$1+$1,$2,$3*
1,1,$1+$1,$4,$5*
1,1,$1+$1,$6,$7*
1,1,$1+$1,$8,$9*
0 Add four rect primitives between the rounded corners*
20,1,$1+$1,$2,$3,$4,$5,0*
20,1,$1+$1,$4,$5,$6,$7,0*
20,1,$1+$1,$6,$7,$8,$9,0*
20,1,$1+$1,$8,$9,$2,$3,0*%
G04 Aperture macros list end*
%TA.AperFunction,EtchedComponent*%
%ADD10C,0.080000*%
%TD*%
%TA.AperFunction,EtchedComponent*%
%ADD11C,0.250000*%
%TD*%
%TA.AperFunction,ComponentPad*%
%ADD12C,1.700000*%
%TD*%
%TA.AperFunction,ComponentPad*%
%ADD13O,1.700000X1.700000*%
%TD*%
%TA.AperFunction,ComponentPad*%
%ADD14RoundRect,0.200000X0.650000X-0.650000X0.650000X0.650000X-0.650000X0.650000X-0.650000X-0.650000X0*%
%TD*%
%TA.AperFunction,ViaPad*%
%ADD15C,1.000000*%
%TD*%
G04 APERTURE END LIST*
D10*
%TO.C,Logo1*%
X162810000Y-63578000D02*
X162710000Y-63578000D01*
D11*
X161960000Y-59368000D02*
X161960000Y-63568000D01*
D10*
X162810000Y-63418000D02*
X162810000Y-63718000D01*
D11*
X160160000Y-59468000D02*
X161960000Y-61468000D01*
X161960000Y-61468000D02*
X160160000Y-63568000D01*
D10*
X162710000Y-63578000D02*
X162610000Y-63718000D01*
D11*
X161960000Y-61468000D02*
X163460000Y-61468000D01*
X161960000Y-59368000D02*
X164960000Y-63568000D01*
D10*
X162810000Y-63418000D02*
X162710000Y-63418000D01*
X162710000Y-63418000D02*
G75*
G03*
X162710000Y-63578000I0J-80000D01*
G01*
D11*
X161960000Y-63568000D02*
G75*
G03*
X163460000Y-63568000I750000J0D01*
G01*
D10*
X163030000Y-63578000D02*
G75*
G03*
X163030000Y-63578000I-300000J0D01*
G01*
%TD*%
D12*
%TO.P,J1,1,Pin_1*%
%TO.N,Net-(J1-Pad1)*%
X158750000Y-69850000D03*
D13*
%TO.P,J1,2,Pin_2*%
X161290000Y-69850000D03*
D14*
%TO.P,J1,3,Pin_3*%
%TO.N,GND*%
X163830000Y-69850000D03*
D13*
%TO.P,J1,4,Pin_4*%
%TO.N,Net-(J1-Pad4)*%
X166370000Y-69850000D03*
%TD*%
D15*
%TO.N,GND*%
X162950000Y-65532000D03*
%TD*%
%TA.AperFunction,Conductor*%
%TO.N,GND*%
G36*
X166989021Y-58622064D02*
G01*
X167004641Y-58625656D01*
X167011395Y-58624128D01*
X167018320Y-58624140D01*
X167018320Y-58624339D01*
X167030064Y-58623800D01*
X167109428Y-58634248D01*
X167124936Y-58638403D01*
X167214771Y-58675614D01*
X167228675Y-58683642D01*
X167305817Y-58742835D01*
X167317167Y-58754185D01*
X167376358Y-58831325D01*
X167384386Y-58845229D01*
X167421597Y-58935064D01*
X167425752Y-58950572D01*
X167436145Y-59029514D01*
X167435600Y-59040965D01*
X167435908Y-59040966D01*
X167435896Y-59047893D01*
X167434344Y-59054641D01*
X167435872Y-59061394D01*
X167435872Y-59061399D01*
X167437983Y-59070727D01*
X167439500Y-59084300D01*
X167439500Y-69600672D01*
X167421487Y-69644159D01*
X167378000Y-69662172D01*
X167334513Y-69644159D01*
X167319125Y-69618447D01*
X167277129Y-69479350D01*
X167276259Y-69476467D01*
X167186446Y-69307555D01*
X167175319Y-69293911D01*
X167067437Y-69161635D01*
X167065535Y-69159303D01*
X167051491Y-69147685D01*
X166920446Y-69039275D01*
X166920444Y-69039274D01*
X166918132Y-69037361D01*
X166915488Y-69035932D01*
X166915486Y-69035930D01*
X166752495Y-68947800D01*
X166752490Y-68947798D01*
X166749851Y-68946371D01*
X166746985Y-68945484D01*
X166746983Y-68945483D01*
X166695550Y-68929562D01*
X166567101Y-68889801D01*
X166541803Y-68887142D01*
X166379830Y-68870118D01*
X166379831Y-68870118D01*
X166376843Y-68869804D01*
X166373854Y-68870076D01*
X166373853Y-68870076D01*
X166189322Y-68886869D01*
X166189319Y-68886869D01*
X166186325Y-68887142D01*
X166002803Y-68941156D01*
X166000133Y-68942552D01*
X165835935Y-69028392D01*
X165835930Y-69028396D01*
X165833268Y-69029787D01*
X165830924Y-69031672D01*
X165830922Y-69031673D01*
X165686519Y-69147776D01*
X165684176Y-69149660D01*
X165682246Y-69151960D01*
X165674128Y-69161635D01*
X165561207Y-69296208D01*
X165559762Y-69298837D01*
X165559761Y-69298838D01*
X165542291Y-69330617D01*
X165469045Y-69463850D01*
X165468137Y-69466713D01*
X165425643Y-69600672D01*
X165411200Y-69646201D01*
X165389876Y-69836314D01*
X165393466Y-69879071D01*
X165401823Y-69978583D01*
X165405884Y-70026948D01*
X165406711Y-70029833D01*
X165406712Y-70029837D01*
X165417416Y-70067166D01*
X165458614Y-70210843D01*
X165546060Y-70380993D01*
X165664889Y-70530918D01*
X165810575Y-70654907D01*
X165813201Y-70656375D01*
X165813203Y-70656376D01*
X165974946Y-70746771D01*
X165974950Y-70746773D01*
X165977570Y-70748237D01*
X165980425Y-70749165D01*
X165980428Y-70749166D01*
X166135371Y-70799510D01*
X166171163Y-70830080D01*
X166174856Y-70877005D01*
X166144286Y-70912797D01*
X166116366Y-70919500D01*
X164851505Y-70919500D01*
X164808018Y-70901487D01*
X164790005Y-70858000D01*
X164802036Y-70821461D01*
X164879456Y-70716644D01*
X164883710Y-70708609D01*
X164925780Y-70588810D01*
X164927375Y-70581543D01*
X164929863Y-70555221D01*
X164930000Y-70552315D01*
X164930000Y-69987234D01*
X164926417Y-69978583D01*
X164917766Y-69975000D01*
X162742235Y-69975000D01*
X162733584Y-69978583D01*
X162730001Y-69987234D01*
X162730001Y-70552312D01*
X162730138Y-70555224D01*
X162732625Y-70581543D01*
X162734219Y-70588809D01*
X162776290Y-70708609D01*
X162780544Y-70716644D01*
X162857964Y-70821461D01*
X162869312Y-70867143D01*
X162845034Y-70907469D01*
X162808495Y-70919500D01*
X161536074Y-70919500D01*
X161492587Y-70901487D01*
X161474574Y-70858000D01*
X161492587Y-70814513D01*
X161519535Y-70798765D01*
X161542912Y-70792238D01*
X161644472Y-70763882D01*
X161815228Y-70677627D01*
X161908269Y-70604936D01*
X161963605Y-70561703D01*
X161963606Y-70561702D01*
X161965979Y-70559848D01*
X161969971Y-70555224D01*
X162089015Y-70417309D01*
X162089016Y-70417308D01*
X162090982Y-70415030D01*
X162185476Y-70248691D01*
X162239644Y-70085855D01*
X162244911Y-70070023D01*
X162244912Y-70070019D01*
X162245861Y-70067166D01*
X162269838Y-69877369D01*
X162270220Y-69850000D01*
X162256764Y-69712766D01*
X162730000Y-69712766D01*
X162733583Y-69721417D01*
X162742234Y-69725000D01*
X163692766Y-69725000D01*
X163701417Y-69721417D01*
X163705000Y-69712766D01*
X163955000Y-69712766D01*
X163958583Y-69721417D01*
X163967234Y-69725000D01*
X164917765Y-69725000D01*
X164926416Y-69721417D01*
X164929999Y-69712766D01*
X164929999Y-69147688D01*
X164929862Y-69144776D01*
X164927375Y-69118457D01*
X164925781Y-69111191D01*
X164883710Y-68991391D01*
X164879456Y-68983356D01*
X164804522Y-68881904D01*
X164798096Y-68875478D01*
X164696644Y-68800544D01*
X164688609Y-68796290D01*
X164568810Y-68754220D01*
X164561543Y-68752625D01*
X164535221Y-68750137D01*
X164532315Y-68750000D01*
X163967234Y-68750000D01*
X163958583Y-68753583D01*
X163955000Y-68762234D01*
X163955000Y-69712766D01*
X163705000Y-69712766D01*
X163705000Y-68762235D01*
X163701417Y-68753584D01*
X163692766Y-68750001D01*
X163127688Y-68750001D01*
X163124776Y-68750138D01*
X163098457Y-68752625D01*
X163091191Y-68754219D01*
X162971391Y-68796290D01*
X162963356Y-68800544D01*
X162861904Y-68875478D01*
X162855478Y-68881904D01*
X162780544Y-68983356D01*
X162776290Y-68991391D01*
X162734220Y-69111190D01*
X162732625Y-69118457D01*
X162730137Y-69144779D01*
X162730000Y-69147685D01*
X162730000Y-69712766D01*
X162256764Y-69712766D01*
X162251552Y-69659608D01*
X162196259Y-69476467D01*
X162106446Y-69307555D01*
X162095319Y-69293911D01*
X161987437Y-69161635D01*
X161985535Y-69159303D01*
X161971491Y-69147685D01*
X161840446Y-69039275D01*
X161840444Y-69039274D01*
X161838132Y-69037361D01*
X161835488Y-69035932D01*
X161835486Y-69035930D01*
X161672495Y-68947800D01*
X161672490Y-68947798D01*
X161669851Y-68946371D01*
X161666985Y-68945484D01*
X161666983Y-68945483D01*
X161615550Y-68929562D01*
X161487101Y-68889801D01*
X161461803Y-68887142D01*
X161299830Y-68870118D01*
X161299831Y-68870118D01*
X161296843Y-68869804D01*
X161293854Y-68870076D01*
X161293853Y-68870076D01*
X161109322Y-68886869D01*
X161109319Y-68886869D01*
X161106325Y-68887142D01*
X160922803Y-68941156D01*
X160920133Y-68942552D01*
X160755935Y-69028392D01*
X160755930Y-69028396D01*
X160753268Y-69029787D01*
X160750924Y-69031672D01*
X160750922Y-69031673D01*
X160606519Y-69147776D01*
X160604176Y-69149660D01*
X160602246Y-69151960D01*
X160594128Y-69161635D01*
X160481207Y-69296208D01*
X160479762Y-69298837D01*
X160479761Y-69298838D01*
X160462291Y-69330617D01*
X160389045Y-69463850D01*
X160388137Y-69466713D01*
X160345643Y-69600672D01*
X160331200Y-69646201D01*
X160309876Y-69836314D01*
X160313466Y-69879071D01*
X160321823Y-69978583D01*
X160325884Y-70026948D01*
X160326711Y-70029833D01*
X160326712Y-70029837D01*
X160337416Y-70067166D01*
X160378614Y-70210843D01*
X160466060Y-70380993D01*
X160584889Y-70530918D01*
X160730575Y-70654907D01*
X160733201Y-70656375D01*
X160733203Y-70656376D01*
X160894946Y-70746771D01*
X160894950Y-70746773D01*
X160897570Y-70748237D01*
X160900425Y-70749165D01*
X160900428Y-70749166D01*
X161055371Y-70799510D01*
X161091163Y-70830080D01*
X161094856Y-70877005D01*
X161064286Y-70912797D01*
X161036366Y-70919500D01*
X158996074Y-70919500D01*
X158952587Y-70901487D01*
X158934574Y-70858000D01*
X158952587Y-70814513D01*
X158979535Y-70798765D01*
X159002912Y-70792238D01*
X159104472Y-70763882D01*
X159275228Y-70677627D01*
X159368269Y-70604936D01*
X159423605Y-70561703D01*
X159423606Y-70561702D01*
X159425979Y-70559848D01*
X159429971Y-70555224D01*
X159549015Y-70417309D01*
X159549016Y-70417308D01*
X159550982Y-70415030D01*
X159645476Y-70248691D01*
X159699644Y-70085855D01*
X159704911Y-70070023D01*
X159704912Y-70070019D01*
X159705861Y-70067166D01*
X159729838Y-69877369D01*
X159730220Y-69850000D01*
X159711552Y-69659608D01*
X159656259Y-69476467D01*
X159566446Y-69307555D01*
X159555319Y-69293911D01*
X159447437Y-69161635D01*
X159445535Y-69159303D01*
X159431491Y-69147685D01*
X159300446Y-69039275D01*
X159300444Y-69039274D01*
X159298132Y-69037361D01*
X159295488Y-69035932D01*
X159295486Y-69035930D01*
X159132495Y-68947800D01*
X159132490Y-68947798D01*
X159129851Y-68946371D01*
X159126985Y-68945484D01*
X159126983Y-68945483D01*
X159075550Y-68929562D01*
X158947101Y-68889801D01*
X158921803Y-68887142D01*
X158759830Y-68870118D01*
X158759831Y-68870118D01*
X158756843Y-68869804D01*
X158753854Y-68870076D01*
X158753853Y-68870076D01*
X158569322Y-68886869D01*
X158569319Y-68886869D01*
X158566325Y-68887142D01*
X158382803Y-68941156D01*
X158380133Y-68942552D01*
X158215935Y-69028392D01*
X158215930Y-69028396D01*
X158213268Y-69029787D01*
X158210924Y-69031672D01*
X158210922Y-69031673D01*
X158066519Y-69147776D01*
X158064176Y-69149660D01*
X158062246Y-69151960D01*
X158054128Y-69161635D01*
X157941207Y-69296208D01*
X157939762Y-69298837D01*
X157939761Y-69298838D01*
X157922291Y-69330617D01*
X157849045Y-69463850D01*
X157848137Y-69466713D01*
X157800621Y-69616502D01*
X157770302Y-69652507D01*
X157723404Y-69656527D01*
X157687399Y-69626208D01*
X157680500Y-69597906D01*
X157680500Y-59454576D01*
X159904945Y-59454576D01*
X159919223Y-59553203D01*
X159957299Y-59617236D01*
X160609214Y-60341586D01*
X161590480Y-61431882D01*
X161606182Y-61476255D01*
X161591461Y-61513047D01*
X161399919Y-61736513D01*
X159953749Y-63423711D01*
X159952268Y-63426345D01*
X159924232Y-63476200D01*
X159917233Y-63488645D01*
X159916511Y-63494657D01*
X159916510Y-63494659D01*
X159911390Y-63537270D01*
X159905344Y-63587589D01*
X159906978Y-63593421D01*
X159906978Y-63593424D01*
X159909923Y-63603935D01*
X159932226Y-63683550D01*
X159993783Y-63761920D01*
X159999063Y-63764889D01*
X159999064Y-63764890D01*
X160022953Y-63778324D01*
X160080645Y-63810767D01*
X160086657Y-63811489D01*
X160086659Y-63811490D01*
X160131053Y-63816824D01*
X160179589Y-63822656D01*
X160185421Y-63821022D01*
X160185424Y-63821022D01*
X160249488Y-63803075D01*
X160275550Y-63795774D01*
X160334136Y-63749757D01*
X161601306Y-62271392D01*
X161643283Y-62250097D01*
X161688024Y-62264722D01*
X161709500Y-62311416D01*
X161709500Y-63537270D01*
X161708318Y-63549268D01*
X161704592Y-63568000D01*
X161705756Y-63573854D01*
X161705773Y-63574038D01*
X161705773Y-63575123D01*
X161706050Y-63577025D01*
X161722322Y-63752629D01*
X161723099Y-63755360D01*
X161723100Y-63755365D01*
X161743345Y-63826518D01*
X161773065Y-63930971D01*
X161855714Y-64096952D01*
X161967454Y-64244920D01*
X162104481Y-64369837D01*
X162262128Y-64467448D01*
X162264783Y-64468477D01*
X162264786Y-64468478D01*
X162432373Y-64533401D01*
X162435027Y-64534429D01*
X162437817Y-64534950D01*
X162437822Y-64534952D01*
X162545434Y-64555068D01*
X162617290Y-64568500D01*
X162802710Y-64568500D01*
X162874566Y-64555068D01*
X162982178Y-64534952D01*
X162982183Y-64534950D01*
X162984973Y-64534429D01*
X162987627Y-64533401D01*
X163155214Y-64468478D01*
X163155217Y-64468477D01*
X163157872Y-64467448D01*
X163315519Y-64369837D01*
X163452546Y-64244920D01*
X163564286Y-64096952D01*
X163646935Y-63930971D01*
X163676655Y-63826518D01*
X163696900Y-63755365D01*
X163696901Y-63755360D01*
X163697678Y-63752629D01*
X163713950Y-63577025D01*
X163714227Y-63575123D01*
X163714227Y-63574038D01*
X163714244Y-63573854D01*
X163715408Y-63568000D01*
X163695966Y-63470260D01*
X163640601Y-63387399D01*
X163557740Y-63332034D01*
X163460000Y-63312592D01*
X163362260Y-63332034D01*
X163279399Y-63387399D01*
X163276034Y-63392435D01*
X163276033Y-63392436D01*
X163266604Y-63406548D01*
X163227467Y-63432700D01*
X163181302Y-63423518D01*
X163159483Y-63397837D01*
X163128006Y-63328608D01*
X163128006Y-63328607D01*
X163126194Y-63324623D01*
X163115828Y-63312592D01*
X163042014Y-63226927D01*
X163039155Y-63223609D01*
X162927263Y-63151084D01*
X162923067Y-63149829D01*
X162803710Y-63114134D01*
X162803709Y-63114134D01*
X162799513Y-63112879D01*
X162795133Y-63112852D01*
X162795131Y-63112852D01*
X162731950Y-63112466D01*
X162666175Y-63112064D01*
X162661959Y-63113269D01*
X162542179Y-63147502D01*
X162542178Y-63147503D01*
X162537967Y-63148706D01*
X162425198Y-63219858D01*
X162422299Y-63223140D01*
X162422296Y-63223143D01*
X162343299Y-63312592D01*
X162336931Y-63319802D01*
X162331188Y-63332034D01*
X162327670Y-63339527D01*
X162292883Y-63371236D01*
X162245863Y-63369060D01*
X162214154Y-63334273D01*
X162210500Y-63313390D01*
X162210500Y-61780000D01*
X162228513Y-61736513D01*
X162272000Y-61718500D01*
X163299439Y-61718500D01*
X163342926Y-61736513D01*
X163349482Y-61744252D01*
X164770501Y-63733678D01*
X164772704Y-63735747D01*
X164772706Y-63735750D01*
X164820382Y-63780540D01*
X164820384Y-63780541D01*
X164824797Y-63784687D01*
X164830463Y-63786829D01*
X164830464Y-63786830D01*
X164912345Y-63817791D01*
X164912347Y-63817791D01*
X164918011Y-63819933D01*
X165017618Y-63816824D01*
X165023137Y-63814333D01*
X165023139Y-63814333D01*
X165102935Y-63778324D01*
X165108453Y-63775834D01*
X165112598Y-63771422D01*
X165172540Y-63707618D01*
X165172541Y-63707616D01*
X165176687Y-63703203D01*
X165211933Y-63609989D01*
X165208824Y-63510382D01*
X165196633Y-63483365D01*
X165179424Y-63445231D01*
X165178182Y-63442478D01*
X164336928Y-62264722D01*
X163666670Y-61326360D01*
X163665580Y-61324782D01*
X163643966Y-61292435D01*
X163640601Y-61287399D01*
X163637907Y-61285599D01*
X163635657Y-61282943D01*
X162166671Y-59226361D01*
X162165581Y-59224783D01*
X162143966Y-59192435D01*
X162140601Y-59187399D01*
X162128817Y-59179525D01*
X162120640Y-59174061D01*
X162112700Y-59167750D01*
X162099618Y-59155461D01*
X162095203Y-59151313D01*
X162081941Y-59146299D01*
X162069527Y-59139910D01*
X162062778Y-59135400D01*
X162062777Y-59135400D01*
X162057740Y-59132034D01*
X162051799Y-59130852D01*
X162051796Y-59130851D01*
X162036947Y-59127898D01*
X162034198Y-59127351D01*
X162024454Y-59124562D01*
X162001989Y-59116067D01*
X161995937Y-59116256D01*
X161995416Y-59116272D01*
X161987818Y-59116510D01*
X161973907Y-59115359D01*
X161960000Y-59112592D01*
X161936455Y-59117275D01*
X161926380Y-59118427D01*
X161902382Y-59119176D01*
X161889462Y-59125007D01*
X161876167Y-59129267D01*
X161868204Y-59130851D01*
X161868200Y-59130852D01*
X161862260Y-59132034D01*
X161844630Y-59143814D01*
X161842301Y-59145370D01*
X161833429Y-59150291D01*
X161811547Y-59160166D01*
X161801838Y-59170501D01*
X161791189Y-59179522D01*
X161779399Y-59187399D01*
X161776034Y-59192435D01*
X161776033Y-59192436D01*
X161766061Y-59207360D01*
X161759750Y-59215300D01*
X161743313Y-59232797D01*
X161741171Y-59238462D01*
X161738299Y-59246058D01*
X161731911Y-59258472D01*
X161724034Y-59270260D01*
X161722852Y-59276201D01*
X161722851Y-59276204D01*
X161719352Y-59293799D01*
X161716562Y-59303546D01*
X161708067Y-59326011D01*
X161708256Y-59332064D01*
X161709470Y-59370961D01*
X161709500Y-59372880D01*
X161709500Y-60654941D01*
X161691487Y-60698428D01*
X161648000Y-60716441D01*
X161602287Y-60696082D01*
X160628992Y-59614643D01*
X160329689Y-59282084D01*
X160321819Y-59276204D01*
X160274859Y-59241121D01*
X160270008Y-59237497D01*
X160173424Y-59212945D01*
X160074797Y-59227223D01*
X160069595Y-59230316D01*
X160069593Y-59230317D01*
X159994345Y-59275062D01*
X159994343Y-59275064D01*
X159989141Y-59278157D01*
X159929497Y-59357992D01*
X159904945Y-59454576D01*
X157680500Y-59454576D01*
X157680500Y-59084989D01*
X157682087Y-59071110D01*
X157685655Y-59055718D01*
X157685656Y-59055000D01*
X157684843Y-59051435D01*
X157684828Y-59051124D01*
X157684497Y-59048163D01*
X157684689Y-59048142D01*
X157683827Y-59029726D01*
X157694248Y-58950572D01*
X157698403Y-58935064D01*
X157735614Y-58845229D01*
X157743642Y-58831325D01*
X157802833Y-58754185D01*
X157814183Y-58742835D01*
X157891325Y-58683642D01*
X157905229Y-58675614D01*
X157995064Y-58638403D01*
X158010572Y-58634248D01*
X158075834Y-58625656D01*
X158089514Y-58623855D01*
X158100965Y-58624400D01*
X158100966Y-58624092D01*
X158107893Y-58624104D01*
X158114641Y-58625656D01*
X158121394Y-58624128D01*
X158121399Y-58624128D01*
X158130727Y-58622017D01*
X158144300Y-58620500D01*
X166975238Y-58620500D01*
X166989021Y-58622064D01*
G37*
%TD.AperFunction*%
%TD*%
M02*
