%TF.GenerationSoftware,KiCad,Pcbnew,(6.0.10-0)*%
%TF.CreationDate,2023-01-07T15:44:38+00:00*%
%TF.ProjectId,Regulator,52656775-6c61-4746-9f72-2e6b69636164,1*%
%TF.SameCoordinates,Original*%
%TF.FileFunction,Legend,Top*%
%TF.FilePolarity,Positive*%
%FSLAX46Y46*%
G04 Gerber Fmt 4.6, Leading zero omitted, Abs format (unit mm)*
G04 Created by KiCad (PCBNEW (6.0.10-0)) date 2023-01-07 15:44:38*
%MOMM*%
%LPD*%
G01*
G04 APERTURE LIST*
%ADD10C,0.120000*%
%ADD11C,0.080000*%
%ADD12C,0.150000*%
G04 APERTURE END LIST*
D10*
X159150000Y-68200000D02*
G75*
G03*
X159150000Y-68200000I-400000J0D01*
G01*
X159500000Y-68200000D02*
X160700000Y-68200000D01*
X158750000Y-68200000D02*
X158750000Y-67800000D01*
D11*
X166973809Y-65328571D02*
X166950000Y-65304761D01*
X166926190Y-65257142D01*
X166926190Y-65138095D01*
X166950000Y-65090476D01*
X166973809Y-65066666D01*
X167021428Y-65042857D01*
X167069047Y-65042857D01*
X167140476Y-65066666D01*
X167426190Y-65352380D01*
X167426190Y-65042857D01*
X166926190Y-64733333D02*
X166926190Y-64685714D01*
X166950000Y-64638095D01*
X166973809Y-64614285D01*
X167021428Y-64590476D01*
X167116666Y-64566666D01*
X167235714Y-64566666D01*
X167330952Y-64590476D01*
X167378571Y-64614285D01*
X167402380Y-64638095D01*
X167426190Y-64685714D01*
X167426190Y-64733333D01*
X167402380Y-64780952D01*
X167378571Y-64804761D01*
X167330952Y-64828571D01*
X167235714Y-64852380D01*
X167116666Y-64852380D01*
X167021428Y-64828571D01*
X166973809Y-64804761D01*
X166950000Y-64780952D01*
X166926190Y-64733333D01*
X166973809Y-64376190D02*
X166950000Y-64352380D01*
X166926190Y-64304761D01*
X166926190Y-64185714D01*
X166950000Y-64138095D01*
X166973809Y-64114285D01*
X167021428Y-64090476D01*
X167069047Y-64090476D01*
X167140476Y-64114285D01*
X167426190Y-64400000D01*
X167426190Y-64090476D01*
X166973809Y-63900000D02*
X166950000Y-63876190D01*
X166926190Y-63828571D01*
X166926190Y-63709523D01*
X166950000Y-63661904D01*
X166973809Y-63638095D01*
X167021428Y-63614285D01*
X167069047Y-63614285D01*
X167140476Y-63638095D01*
X167426190Y-63923809D01*
X167426190Y-63614285D01*
X167235714Y-63400000D02*
X167235714Y-63019047D01*
X166926190Y-62685714D02*
X166926190Y-62638095D01*
X166950000Y-62590476D01*
X166973809Y-62566666D01*
X167021428Y-62542857D01*
X167116666Y-62519047D01*
X167235714Y-62519047D01*
X167330952Y-62542857D01*
X167378571Y-62566666D01*
X167402380Y-62590476D01*
X167426190Y-62638095D01*
X167426190Y-62685714D01*
X167402380Y-62733333D01*
X167378571Y-62757142D01*
X167330952Y-62780952D01*
X167235714Y-62804761D01*
X167116666Y-62804761D01*
X167021428Y-62780952D01*
X166973809Y-62757142D01*
X166950000Y-62733333D01*
X166926190Y-62685714D01*
X166926190Y-62066666D02*
X166926190Y-62304761D01*
X167164285Y-62328571D01*
X167140476Y-62304761D01*
X167116666Y-62257142D01*
X167116666Y-62138095D01*
X167140476Y-62090476D01*
X167164285Y-62066666D01*
X167211904Y-62042857D01*
X167330952Y-62042857D01*
X167378571Y-62066666D01*
X167402380Y-62090476D01*
X167426190Y-62138095D01*
X167426190Y-62257142D01*
X167402380Y-62304761D01*
X167378571Y-62328571D01*
X167235714Y-61828571D02*
X167235714Y-61447619D01*
X166926190Y-61114285D02*
X166926190Y-61066666D01*
X166950000Y-61019047D01*
X166973809Y-60995238D01*
X167021428Y-60971428D01*
X167116666Y-60947619D01*
X167235714Y-60947619D01*
X167330952Y-60971428D01*
X167378571Y-60995238D01*
X167402380Y-61019047D01*
X167426190Y-61066666D01*
X167426190Y-61114285D01*
X167402380Y-61161904D01*
X167378571Y-61185714D01*
X167330952Y-61209523D01*
X167235714Y-61233333D01*
X167116666Y-61233333D01*
X167021428Y-61209523D01*
X166973809Y-61185714D01*
X166950000Y-61161904D01*
X166926190Y-61114285D01*
X167140476Y-60661904D02*
X167116666Y-60709523D01*
X167092857Y-60733333D01*
X167045238Y-60757142D01*
X167021428Y-60757142D01*
X166973809Y-60733333D01*
X166950000Y-60709523D01*
X166926190Y-60661904D01*
X166926190Y-60566666D01*
X166950000Y-60519047D01*
X166973809Y-60495238D01*
X167021428Y-60471428D01*
X167045238Y-60471428D01*
X167092857Y-60495238D01*
X167116666Y-60519047D01*
X167140476Y-60566666D01*
X167140476Y-60661904D01*
X167164285Y-60709523D01*
X167188095Y-60733333D01*
X167235714Y-60757142D01*
X167330952Y-60757142D01*
X167378571Y-60733333D01*
X167402380Y-60709523D01*
X167426190Y-60661904D01*
X167426190Y-60566666D01*
X167402380Y-60519047D01*
X167378571Y-60495238D01*
X167330952Y-60471428D01*
X167235714Y-60471428D01*
X167188095Y-60495238D01*
X167164285Y-60519047D01*
X167140476Y-60566666D01*
D12*
X161290000Y-68552380D02*
X161290000Y-67790476D01*
X161099523Y-67980952D02*
X161290000Y-67790476D01*
X161480476Y-67980952D01*
X163353809Y-67980952D02*
X164306190Y-67980952D01*
X163544285Y-68266666D02*
X164115714Y-68266666D01*
X163830000Y-67552380D02*
X163830000Y-67980952D01*
X163925238Y-68552380D02*
X163734761Y-68552380D01*
D11*
X160871428Y-58842857D02*
X160966666Y-59176190D01*
X161061904Y-58938095D01*
X161157142Y-59176190D01*
X161252380Y-58842857D01*
X161395238Y-58842857D02*
X161490476Y-59176190D01*
X161585714Y-58938095D01*
X161680952Y-59176190D01*
X161776190Y-58842857D01*
X161919047Y-58842857D02*
X162014285Y-59176190D01*
X162109523Y-58938095D01*
X162204761Y-59176190D01*
X162300000Y-58842857D01*
X162490476Y-59128571D02*
X162514285Y-59152380D01*
X162490476Y-59176190D01*
X162466666Y-59152380D01*
X162490476Y-59128571D01*
X162490476Y-59176190D01*
X162728571Y-59176190D02*
X162728571Y-58842857D01*
X162728571Y-58890476D02*
X162752380Y-58866666D01*
X162800000Y-58842857D01*
X162871428Y-58842857D01*
X162919047Y-58866666D01*
X162942857Y-58914285D01*
X162942857Y-59176190D01*
X162942857Y-58914285D02*
X162966666Y-58866666D01*
X163014285Y-58842857D01*
X163085714Y-58842857D01*
X163133333Y-58866666D01*
X163157142Y-58914285D01*
X163157142Y-59176190D01*
X163585714Y-59152380D02*
X163538095Y-59176190D01*
X163442857Y-59176190D01*
X163395238Y-59152380D01*
X163371428Y-59104761D01*
X163371428Y-58914285D01*
X163395238Y-58866666D01*
X163442857Y-58842857D01*
X163538095Y-58842857D01*
X163585714Y-58866666D01*
X163609523Y-58914285D01*
X163609523Y-58961904D01*
X163371428Y-59009523D01*
X163823809Y-59128571D02*
X163847619Y-59152380D01*
X163823809Y-59176190D01*
X163800000Y-59152380D01*
X163823809Y-59128571D01*
X163823809Y-59176190D01*
X164276190Y-58842857D02*
X164276190Y-59176190D01*
X164061904Y-58842857D02*
X164061904Y-59104761D01*
X164085714Y-59152380D01*
X164133333Y-59176190D01*
X164204761Y-59176190D01*
X164252380Y-59152380D01*
X164276190Y-59128571D01*
X164514285Y-59176190D02*
X164514285Y-58676190D01*
X164561904Y-58985714D02*
X164704761Y-59176190D01*
X164704761Y-58842857D02*
X164514285Y-59033333D01*
D12*
X166370000Y-67790476D02*
X166370000Y-68552380D01*
X166560476Y-68361904D02*
X166370000Y-68552380D01*
X166179523Y-68361904D01*
D10*
%TO.C,U1*%
X159025500Y-61687000D02*
X162125500Y-61687000D01*
%TO.C,C1*%
X157970000Y-62910000D02*
X157970000Y-62310000D01*
X158970000Y-62910000D02*
X158970000Y-62310000D01*
%TO.C,C2*%
X159030000Y-66210000D02*
X159030000Y-65610000D01*
X160430000Y-66210000D02*
X160430000Y-65610000D01*
%TO.C,C3*%
X166670000Y-65610000D02*
X166670000Y-66210000D01*
X165270000Y-65610000D02*
X165270000Y-66210000D01*
%TO.C,D1*%
X162350000Y-64820000D02*
X162350000Y-66220000D01*
%TO.C,L1*%
X165180000Y-61660000D02*
X165180000Y-63060000D01*
X163780000Y-61660000D02*
X163780000Y-63060000D01*
%TO.C,R2*%
X159300000Y-60200000D02*
X158700000Y-60200000D01*
X159300000Y-59200000D02*
X158700000Y-59200000D01*
%TO.C,R1*%
X166400000Y-59200000D02*
X165800000Y-59200000D01*
X166400000Y-60200000D02*
X165800000Y-60200000D01*
%TD*%
M02*
