%TF.GenerationSoftware,KiCad,Pcbnew,(6.0.5-0)*%
%TF.CreationDate,2022-05-08T16:30:10+01:00*%
%TF.ProjectId,Regulator,52656775-6c61-4746-9f72-2e6b69636164,1*%
%TF.SameCoordinates,Original*%
%TF.FileFunction,Legend,Bot*%
%TF.FilePolarity,Positive*%
%FSLAX46Y46*%
G04 Gerber Fmt 4.6, Leading zero omitted, Abs format (unit mm)*
G04 Created by KiCad (PCBNEW (6.0.5-0)) date 2022-05-08 16:30:10*
%MOMM*%
%LPD*%
G01*
G04 APERTURE LIST*
%ADD10C,0.120000*%
%ADD11C,0.150000*%
%ADD12C,0.100000*%
G04 APERTURE END LIST*
D10*
X157900000Y-64900000D02*
X157900000Y-68600000D01*
D11*
X159154761Y-64879357D02*
X159202380Y-65022214D01*
X159202380Y-65260309D01*
X159154761Y-65355547D01*
X159107142Y-65403166D01*
X159011904Y-65450785D01*
X158916666Y-65450785D01*
X158821428Y-65403166D01*
X158773809Y-65355547D01*
X158726190Y-65260309D01*
X158678571Y-65069833D01*
X158630952Y-64974595D01*
X158583333Y-64926976D01*
X158488095Y-64879357D01*
X158392857Y-64879357D01*
X158297619Y-64926976D01*
X158250000Y-64974595D01*
X158202380Y-65069833D01*
X158202380Y-65307928D01*
X158250000Y-65450785D01*
X159202380Y-65879357D02*
X158202380Y-65879357D01*
X158678571Y-65879357D02*
X158678571Y-66450785D01*
X159202380Y-66450785D02*
X158202380Y-66450785D01*
X159202380Y-66926976D02*
X158202380Y-66926976D01*
X158202380Y-67165071D01*
X158250000Y-67307928D01*
X158345238Y-67403166D01*
X158440476Y-67450785D01*
X158630952Y-67498404D01*
X158773809Y-67498404D01*
X158964285Y-67450785D01*
X159059523Y-67403166D01*
X159154761Y-67307928D01*
X159202380Y-67165071D01*
X159202380Y-66926976D01*
X159202380Y-67926976D02*
X158202380Y-67926976D01*
X159202380Y-68498404D01*
X158202380Y-68498404D01*
X160742380Y-66450785D02*
X161742380Y-66784119D01*
X160742380Y-67117452D01*
X161742380Y-67450785D02*
X160742380Y-67450785D01*
X161742380Y-67926976D02*
X160742380Y-67926976D01*
X161742380Y-68498404D01*
X160742380Y-68498404D01*
X165822380Y-65117452D02*
X166822380Y-65450785D01*
X165822380Y-65784119D01*
X165822380Y-66307928D02*
X165822380Y-66498404D01*
X165870000Y-66593642D01*
X165965238Y-66688880D01*
X166155714Y-66736500D01*
X166489047Y-66736500D01*
X166679523Y-66688880D01*
X166774761Y-66593642D01*
X166822380Y-66498404D01*
X166822380Y-66307928D01*
X166774761Y-66212690D01*
X166679523Y-66117452D01*
X166489047Y-66069833D01*
X166155714Y-66069833D01*
X165965238Y-66117452D01*
X165870000Y-66212690D01*
X165822380Y-66307928D01*
X165822380Y-67165071D02*
X166631904Y-67165071D01*
X166727142Y-67212690D01*
X166774761Y-67260309D01*
X166822380Y-67355547D01*
X166822380Y-67546023D01*
X166774761Y-67641261D01*
X166727142Y-67688880D01*
X166631904Y-67736500D01*
X165822380Y-67736500D01*
X165822380Y-68069833D02*
X165822380Y-68641261D01*
X166822380Y-68355547D02*
X165822380Y-68355547D01*
X163330000Y-66450785D02*
X163282380Y-66355547D01*
X163282380Y-66212690D01*
X163330000Y-66069833D01*
X163425238Y-65974595D01*
X163520476Y-65926976D01*
X163710952Y-65879357D01*
X163853809Y-65879357D01*
X164044285Y-65926976D01*
X164139523Y-65974595D01*
X164234761Y-66069833D01*
X164282380Y-66212690D01*
X164282380Y-66307928D01*
X164234761Y-66450785D01*
X164187142Y-66498404D01*
X163853809Y-66498404D01*
X163853809Y-66307928D01*
X164282380Y-66926976D02*
X163282380Y-66926976D01*
X164282380Y-67498404D01*
X163282380Y-67498404D01*
X164282380Y-67974595D02*
X163282380Y-67974595D01*
X163282380Y-68212690D01*
X163330000Y-68355547D01*
X163425238Y-68450785D01*
X163520476Y-68498404D01*
X163710952Y-68546023D01*
X163853809Y-68546023D01*
X164044285Y-68498404D01*
X164139523Y-68450785D01*
X164234761Y-68355547D01*
X164282380Y-68212690D01*
X164282380Y-67974595D01*
D12*
%TO.C,Logo1*%
X165047142Y-65078714D02*
X164923333Y-65512047D01*
X164799523Y-65202523D01*
X164675714Y-65512047D01*
X164551904Y-65078714D01*
X164366190Y-65078714D02*
X164242380Y-65512047D01*
X164118571Y-65202523D01*
X163994761Y-65512047D01*
X163870952Y-65078714D01*
X163685238Y-65078714D02*
X163561428Y-65512047D01*
X163437619Y-65202523D01*
X163313809Y-65512047D01*
X163190000Y-65078714D01*
X162942380Y-65450142D02*
X162911428Y-65481095D01*
X162942380Y-65512047D01*
X162973333Y-65481095D01*
X162942380Y-65450142D01*
X162942380Y-65512047D01*
X162632857Y-65512047D02*
X162632857Y-65078714D01*
X162632857Y-65140619D02*
X162601904Y-65109666D01*
X162540000Y-65078714D01*
X162447142Y-65078714D01*
X162385238Y-65109666D01*
X162354285Y-65171571D01*
X162354285Y-65512047D01*
X162354285Y-65171571D02*
X162323333Y-65109666D01*
X162261428Y-65078714D01*
X162168571Y-65078714D01*
X162106666Y-65109666D01*
X162075714Y-65171571D01*
X162075714Y-65512047D01*
X161518571Y-65481095D02*
X161580476Y-65512047D01*
X161704285Y-65512047D01*
X161766190Y-65481095D01*
X161797142Y-65419190D01*
X161797142Y-65171571D01*
X161766190Y-65109666D01*
X161704285Y-65078714D01*
X161580476Y-65078714D01*
X161518571Y-65109666D01*
X161487619Y-65171571D01*
X161487619Y-65233476D01*
X161797142Y-65295380D01*
X161209047Y-65450142D02*
X161178095Y-65481095D01*
X161209047Y-65512047D01*
X161240000Y-65481095D01*
X161209047Y-65450142D01*
X161209047Y-65512047D01*
X160620952Y-65078714D02*
X160620952Y-65512047D01*
X160899523Y-65078714D02*
X160899523Y-65419190D01*
X160868571Y-65481095D01*
X160806666Y-65512047D01*
X160713809Y-65512047D01*
X160651904Y-65481095D01*
X160620952Y-65450142D01*
X160311428Y-65512047D02*
X160311428Y-64862047D01*
X160249523Y-65264428D02*
X160063809Y-65512047D01*
X160063809Y-65078714D02*
X160311428Y-65326333D01*
%TD*%
M02*
